<svg id="Layer_1" data-name="Layer 1" xmlns="http://www.w3.org/2000/svg" viewBox="0 0 250 167.04"><defs><style>.cls-1{fill:#1d1d1b;}.cls-2{fill:none;stroke:#1d1d1b;stroke-miterlimit:10;stroke-width:0.25px;}</style></defs><title>15</title><path class="cls-1" d="M227.34,40.78a2.37,2.37,0,0,0-2.35-.1c-1.72.85-3.45-1-3.45-1a1.6,1.6,0,0,1-.41-1A45.34,45.34,0,0,0,135.78,25a1.26,1.26,0,0,1-1.35.68A54.11,54.11,0,0,0,120.88,25c-1.6.12-3.17,0.33-4.72,0.59A1.12,1.12,0,0,1,115,25a45.34,45.34,0,0,0-85.35,13.7,1.6,1.6,0,0,1-.41,1s-1.72,1.85-3.45,1a2.37,2.37,0,0,0-2.35.1,1.77,1.77,0,0,0-.81,2.17l1.31,3.76c0.42,1.4,1.18,1.19,2,1.2h2.54a0.78,0.78,0,0,1,.78.73,45.37,45.37,0,0,0,90.57-5.45,44.72,44.72,0,0,0-2.15-11.74,1.1,1.1,0,0,1,.88-1.44,49.14,49.14,0,0,1,9.75-.35q2,0.13,4,.43a1,1,0,0,1,.8,1.33,44.73,44.73,0,0,0-2.16,11.77,45.37,45.37,0,0,0,90.57,5.45,0.78,0.78,0,0,1,.78-0.73h2.54c0.82,0,1.58.2,2-1.2l1.31-3.76A1.77,1.77,0,0,0,227.34,40.78Zm-111.57,7.3a41.38,41.38,0,1,1-44-44A41.48,41.48,0,0,1,115.77,48.08Zm57.79,38.58a41.38,41.38,0,1,1,44-44A41.48,41.48,0,0,1,173.56,86.66Z"/><path class="cls-1" d="M90.61,167v-6.15h0.47v5.74h3.27V167H90.61Z"/><path class="cls-1" d="M101.6,167v-6.15h0.47V167H101.6Z"/><path class="cls-1" d="M111.56,167a2.6,2.6,0,0,1-2-.81l0.33-.33a2.15,2.15,0,0,0,1.74.73,1.34,1.34,0,0,0,1.58-1.27,1.11,1.11,0,0,0-.34-0.86,1.48,1.48,0,0,0-.89-0.33l-0.72-.11a2.13,2.13,0,0,1-1.1-.45,1.4,1.4,0,0,1-.48-1.13,1.68,1.68,0,0,1,1.91-1.68,2.43,2.43,0,0,1,1.77.67l-0.3.3a2,2,0,0,0-1.49-.57,1.25,1.25,0,0,0-1.43,1.27,1,1,0,0,0,.32.8,2,2,0,0,0,.92.38l0.66,0.1a2,2,0,0,1,1.1.41,1.51,1.51,0,0,1,.54,1.19C113.63,166.37,112.83,167,111.56,167Z"/><path class="cls-1" d="M123.47,167h-2.33v-6.15h2.26a1.6,1.6,0,0,1,1.78,1.61,1.41,1.41,0,0,1-1,1.38,1.5,1.5,0,0,1,1.05,1.49A1.6,1.6,0,0,1,123.47,167Zm-0.12-5.74h-1.74v2.38h1.74A1.2,1.2,0,1,0,123.35,161.25Zm0.07,2.8h-1.81v2.52h1.81A1.27,1.27,0,1,0,123.42,164.05Z"/><path class="cls-1" d="M136.39,166.41a2.19,2.19,0,0,1-3.07,0c-0.56-.56-0.57-1.11-0.57-2.5s0-1.93.57-2.5a2.19,2.19,0,0,1,3.07,0c0.56,0.56.57,1.11,0.57,2.5S137,165.85,136.39,166.41ZM136,161.68a1.67,1.67,0,0,0-2.33,0c-0.44.44-.47,0.92-0.47,2.24s0,1.8.47,2.24a1.67,1.67,0,0,0,2.33,0c0.44-.44.47-0.92,0.47-2.24S136.46,162.12,136,161.68Z"/><path class="cls-1" d="M148.21,167l-0.54-1.49h-2.87L144.27,167h-0.5l2.26-6.15h0.41l2.26,6.15h-0.5Zm-2-5.53L145,165.08h2.57Z"/><path class="cls-1" d="M59.85,123.77q0,0.93-1.55.93a3.09,3.09,0,0,1-2.7-1.44,3.4,3.4,0,0,1-.54-1.2q-0.12-.58-0.37-2.93a2.7,2.7,0,0,0-.91-2,4.44,4.44,0,0,0-2.53-.63v7A0.65,0.65,0,0,0,52,124l1,0c0.19,0,.29.06,0.29,0.18s-0.13.2-.38,0.2H47.69q-0.49,0-.49-0.2t0.64-.18a1.4,1.4,0,0,0,1.13-.27,2.17,2.17,0,0,0,.09-0.86V110.72a1.76,1.76,0,0,0-.19-1.06,2.19,2.19,0,0,0-1.14-.2q-0.55,0-.55-0.2c0-.15.12-0.22,0.35-0.22l0.2,0,2.95,0.07,1.24,0Q52.8,109,53.16,109a5.27,5.27,0,0,1,3.27.92,3,3,0,0,1,1.21,2.49A3.16,3.16,0,0,1,56.39,115,6,6,0,0,1,53,116.19a0.33,0.33,0,0,0-.22.07q0,0.09.22,0.09a4.72,4.72,0,0,1,3.2,1.63,9.69,9.69,0,0,1,1.16,4.46q0.18,1.82,1.24,1.82,0.33,0,.33-0.13a0.07,0.07,0,0,0,0,0,1,1,0,0,1-.11-0.4,0.42,0.42,0,0,1,.49-0.47A0.48,0.48,0,0,1,59.85,123.77Zm-4.59-11.1q0-3.17-2.75-3.17a1.77,1.77,0,0,0-1,.2,0.83,0.83,0,0,0-.27.71V116a4.66,4.66,0,0,0,3.07-.78A3.22,3.22,0,0,0,55.26,112.67Z"/><path class="cls-1" d="M69.86,114.53c0,0.1-.12.16-0.35,0.16H68.95a0.36,0.36,0,0,0-.35.44v4.08A25.7,25.7,0,0,1,68.5,122,3.27,3.27,0,0,1,68,123.2,3.31,3.31,0,0,1,65,124.59a4.62,4.62,0,0,1-2.9-.84q-1-.77-1-3V116.1a5,5,0,0,0-.08-1.3,1,1,0,0,0-.65-0.11q-0.46,0-.47-0.18c0-.1.1-0.16,0.31-0.16h3.5q0.4,0,.4.18t-0.82.2a0.34,0.34,0,0,0-.29.08,1.49,1.49,0,0,0,0,.5v5.31a4.71,4.71,0,0,0,.55,2.81,2.28,2.28,0,0,0,1.84.73,2.31,2.31,0,0,0,2.33-1.41,6.06,6.06,0,0,0,.31-2.27v-5.34a0.4,0.4,0,0,0-.11-0.35,1.64,1.64,0,0,0-.62-0.07q-0.51,0-.51-0.2c0-.1.09-0.15,0.27-0.15h2.5C69.74,114.35,69.86,114.41,69.86,114.53Z"/><path class="cls-1" d="M79.23,124.32c0,0.09-.15.13-0.44,0.13H74.42c-0.27,0-.4-0.06-0.4-0.18a0.85,0.85,0,0,1,.8-0.2,1.06,1.06,0,0,0,1-.22,3.11,3.11,0,0,0-.13-0.42q0-.18-0.51-1.47l-0.27-.75H71.69a14.44,14.44,0,0,0-.91,2.64,0.23,0.23,0,0,0,.27.22l0.29,0h0.33l0.2,0.07c0.18,0,.27,0,0.27.13s-0.16.15-.47,0.15l-0.79,0-1.27,0h-0.2l-0.2,0-0.24,0h0c-0.24,0-.35,0-0.35-0.13s0.1-.16.29-0.18l0.53,0a0.83,0.83,0,0,0,.49-0.2A15.68,15.68,0,0,0,71,121.37q0.38-1,.73-1.87a4.41,4.41,0,0,0,.18-0.47,4.44,4.44,0,0,1,.18-0.47q0.38-.91,1.06-2.75l0.33-.93,0.15-.4a0.43,0.43,0,0,1,.27-0.33,1.56,1.56,0,0,1,.29.62q0.66,1.62,3.43,8.55a1.08,1.08,0,0,0,.51.73,6.47,6.47,0,0,0,.71.07Q79.23,124.15,79.23,124.32Zm-4.5-3.48-1.42-3.79q-0.54,1.33-1.48,3.79h2.91Z"/><path class="cls-1" d="M86.7,117.16a2.59,2.59,0,0,1-1.11,2.24,3.49,3.49,0,0,1-2.06.57H81.13c-0.14,0-.21,0-0.21-0.12s0-.1.15-0.09h0.28q0.25,0,.27-0.14a1.81,1.81,0,0,0,0-.43v-3.94a3.41,3.41,0,0,0,0-.63,0.74,0.74,0,0,0-.43-0.09q-0.22,0-.22-0.09t0.22-.1h1.38a9.21,9.21,0,0,1,2.3.2,2.38,2.38,0,0,1,1.32,1A2.81,2.81,0,0,1,86.7,117.16Zm-1.18,0q0-2.55-2.06-2.55a1.71,1.71,0,0,0-.69.07,0.83,0.83,0,0,0-.07.45v4.36a0.27,0.27,0,0,0,.1.27,1.67,1.67,0,0,0,.53,0Q85.51,119.76,85.51,117.12Z"/><path class="cls-1" d="M92,118.64l0,0.16a2.08,2.08,0,0,0,0,.26v0.72a0.93,0.93,0,0,0,0,.25l-2.06,0-2.36,0q-0.26,0-.26-0.1c0-.07,0-0.11.15-0.11a1,1,0,0,0,.46-0.06,0.66,0.66,0,0,0,.07-0.4V115.1a0.79,0.79,0,0,0-.09-0.54,1.76,1.76,0,0,0-.43,0c-0.1,0-.15,0-0.15-0.09s0.05-.1.16-0.1h4.22v0.27c0,0.12,0,.49.1,1.09a0.74,0.74,0,0,1,0,.15c0,0.11,0,.16-0.09.16s-0.13-.08-0.16-0.25a1.27,1.27,0,0,0-.65-1.1,5.58,5.58,0,0,0-1.28-.09H89v2.31h0.29a2.12,2.12,0,0,0,1-.13,1,1,0,0,0,.24-0.71c0-.23.07-0.35,0.15-0.35s0.12,0.08.12,0.25,0,0.25,0,.46,0,0.36,0,.47q0,0.8,0,1.1c0,0.07,0,.12,0,0.16s0,0.2-.12.2-0.12-.1-0.15-0.31a1.31,1.31,0,0,0-.24-0.8,2,2,0,0,0-1-.13H89v2.67a13.85,13.85,0,0,0,2.13-.1,1.18,1.18,0,0,0,.58-1.18c0-.12.05-0.18,0.14-0.18S92,118.41,92,118.64Z"/><path class="cls-1" d="M104.52,120.11a4.26,4.26,0,0,1-1.45,3.25,5,5,0,0,1-3.49,1.34,7.33,7.33,0,0,1-2.86-.73,1.84,1.84,0,0,0-.67-0.2c-0.18,0-.29.2-0.33,0.61a0.28,0.28,0,0,1-.29.32,0.22,0.22,0,0,1-.22-0.27,1.24,1.24,0,0,1,0-.27,19.29,19.29,0,0,0,.18-2.5c0-.15,0-0.56,0-1.24a2.25,2.25,0,0,1,0-.35,0.27,0.27,0,0,1,.27-0.33c0.15,0,.25.18,0.31,0.54q0.58,4,3.75,4a2.78,2.78,0,0,0,2.09-.77,3,3,0,0,0,.74-2.16,3.23,3.23,0,0,0-.72-2.12,7.52,7.52,0,0,0-2.47-1.74,9.2,9.2,0,0,1-2.93-2,3.62,3.62,0,0,1-.82-2.41,4.13,4.13,0,0,1,1.19-3,4,4,0,0,1,3-1.2,6.3,6.3,0,0,1,2.08.51,2.2,2.2,0,0,0,.69.18,0.43,0.43,0,0,0,.32-0.09,1.17,1.17,0,0,0,.14-0.47,0.24,0.24,0,0,1,.24-0.22,0.22,0.22,0,0,1,.22.27,1.19,1.19,0,0,1,0,.27,10.54,10.54,0,0,0-.07,1.28,10,10,0,0,0,.11,1.68l0,0.35a0.19,0.19,0,0,1-.2.24c-0.16,0-.27-0.17-0.33-0.51a4,4,0,0,0-1.15-2.18,2.87,2.87,0,0,0-2-.88A2.28,2.28,0,0,0,98,110a2.73,2.73,0,0,0-.65,1.93,2.93,2.93,0,0,0,1,2.28,11.52,11.52,0,0,0,2.3,1.37,9.45,9.45,0,0,1,3,2.12A3.69,3.69,0,0,1,104.52,120.11Z"/><path class="cls-1" d="M115,124.32c0,0.09-.15.13-0.44,0.13h-4.36c-0.27,0-.4-0.06-0.4-0.18a0.85,0.85,0,0,1,.8-0.2,1.06,1.06,0,0,0,1-.22,3.14,3.14,0,0,0-.13-0.42q0-.18-0.51-1.47l-0.27-.75h-3.17a14.44,14.44,0,0,0-.91,2.64,0.23,0.23,0,0,0,.27.22l0.29,0h0.33l0.2,0.07c0.18,0,.27,0,0.27.13s-0.16.15-.47,0.15l-0.79,0-1.27,0h-0.2l-0.2,0-0.24,0h0c-0.24,0-.35,0-0.35-0.13s0.1-.16.29-0.18l0.53,0a0.83,0.83,0,0,0,.49-0.2,15.61,15.61,0,0,0,1.09-2.53q0.38-1,.73-1.87a4.46,4.46,0,0,0,.18-0.47,4.37,4.37,0,0,1,.18-0.47q0.38-.91,1.06-2.75l0.33-.93,0.15-.4a0.42,0.42,0,0,1,.27-0.33,1.55,1.55,0,0,1,.29.62q0.67,1.62,3.43,8.55a1.08,1.08,0,0,0,.51.73,6.49,6.49,0,0,0,.71.07Q115,124.15,115,124.32ZM112.68,111a2.42,2.42,0,0,1-.45,1.26,1.47,1.47,0,0,1-1.32.71,5.63,5.63,0,0,1-2-.75,6.91,6.91,0,0,0-1.62-.71,0.4,0.4,0,0,0-.44.47,1,1,0,0,0,.33.6,0.2,0.2,0,0,1,.11.18c0,0.1-.07.16-0.22,0.16a0.6,0.6,0,0,1-.44-0.28,0.92,0.92,0,0,1-.22-0.59,1.32,1.32,0,0,1,.48-1,1.65,1.65,0,0,1,1.14-.43,5,5,0,0,1,2,.68,5.94,5.94,0,0,0,1.64.67,0.87,0.87,0,0,0,.49-0.75,0.41,0.41,0,0,1,.31-0.38A0.17,0.17,0,0,1,112.68,111Zm-2.15,9.84-1.42-3.79q-0.54,1.33-1.48,3.79h2.91Z"/><path class="cls-1" d="M124.4,119.46a5.13,5.13,0,0,1-1.4,3.64,4.5,4.5,0,0,1-3.41,1.49,4.86,4.86,0,0,1-3.62-1.51,5.51,5.51,0,0,1-.07-7.43,4.8,4.8,0,0,1,3.6-1.45,4.57,4.57,0,0,1,3.49,1.52A5.3,5.3,0,0,1,124.4,119.46Zm-2.08.07a6.92,6.92,0,0,0-1-4,2.12,2.12,0,0,0-1.84-1,2.46,2.46,0,0,0-2.35,1.77,8.3,8.3,0,0,0-.51,3.14,6.73,6.73,0,0,0,.8,3.56,2.48,2.48,0,0,0,2.22,1.28Q122.32,124.28,122.32,119.52Z"/><path class="cls-1" d="M137.29,120.4a3.55,3.55,0,0,1-2.06,3.35,7.33,7.33,0,0,1-2.86.67q-0.51,0-3,0h-2.7c-0.25,0-.38-0.06-0.38-0.19s0.23-.19.69-0.19a1.51,1.51,0,0,0,.94-0.17,2,2,0,0,0,.14-1v-12a3.69,3.69,0,0,0-.09-1.13,1.46,1.46,0,0,0-1.13-.29q-0.6,0-.6-0.23t0.55-.21H127a1.73,1.73,0,0,0,.44.07h4.32a6.68,6.68,0,0,1,3.57.8,3,3,0,0,1,1.37,2.64,3.1,3.1,0,0,1-1.13,2.47,5.86,5.86,0,0,1-3.17,1.21v0.13a6.76,6.76,0,0,1,3.15.84A3.54,3.54,0,0,1,137.29,120.4Zm-3-7.64q0-2.13-1-2.84a3.47,3.47,0,0,0-1.93-.38c-0.25,0-.64,0-1.17.07V116h0.2l1.22,0a2.51,2.51,0,0,0,2-.9A3.59,3.59,0,0,0,134.32,112.76Zm0.64,7.4q0-2.79-2.26-3.46a10,10,0,0,0-2.46-.2v6.6a1.08,1.08,0,0,0,.13.73,2.81,2.81,0,0,0,1.24.16,3.17,3.17,0,0,0,2.44-1A4,4,0,0,0,135,120.16Z"/><path class="cls-1" d="M146.45,122.05s0,0.11,0,.28a3.58,3.58,0,0,0,0,.46v1.28a1.67,1.67,0,0,0,.07.44l-3.7-.07-4.23.07c-0.31,0-.47-0.06-0.47-0.18s0.09-.2.27-0.2a1.87,1.87,0,0,0,.83-0.1,1.17,1.17,0,0,0,.12-0.72V115.7a1.42,1.42,0,0,0-.16-1,3.17,3.17,0,0,0-.78-0.05c-0.18,0-.27-0.05-0.27-0.16s0.1-.18.29-0.18h7.58v0.15l0,0.33c0,0.22.09,0.87,0.18,2a1.33,1.33,0,0,1,0,.26c0,0.19-.05.28-0.16,0.28s-0.23-.15-0.29-0.44q-0.31-1.68-1.17-2a10,10,0,0,0-2.29-.16h-1.12v4.14h0.53a3.8,3.8,0,0,0,1.74-.23,1.86,1.86,0,0,0,.44-1.27c0-.41.13-0.62,0.27-0.62s0.22,0.15.22,0.44,0,0.45,0,.82,0,0.65,0,.84q0,1.44,0,2c0,0.12,0,.21,0,0.29q0,0.35-.22.35c-0.13,0-.22-0.18-0.26-0.55a2.34,2.34,0,0,0-.44-1.43,3.68,3.68,0,0,0-1.73-.23h-0.55v4.79a24.88,24.88,0,0,0,3.82-.18q0.88-.24,1-2.13c0-.22.1-0.33,0.24-0.33S146.45,121.64,146.45,122.05Z"/><path class="cls-1" d="M157.25,114.51c0,0.1-.16.16-0.49,0.16h-0.55a0.23,0.23,0,0,0-.23.09,2.85,2.85,0,0,0,0,.6v8.17c0,0.53,0,.85,0,0.93a0.17,0.17,0,0,1-.2.13,6.54,6.54,0,0,1-1.58-1.86q-0.15-.24-0.48-0.67l-0.24-.33q-1.11-1.47-4-5.53v7a0.88,0.88,0,0,0,.23.87,5.4,5.4,0,0,0,.85,0h0.09c0.18,0,.27,0,0.27.14s-0.16.17-.49,0.17l-0.73,0-0.6,0-0.44,0a8.68,8.68,0,0,1-.91,0c-0.24,0-.35-0.05-0.35-0.17s0.14-.14.42-0.14h0.2l0.29,0a0.58,0.58,0,0,0,.55-0.2,4.79,4.79,0,0,0,0-.65v-6.14a5.58,5.58,0,0,0-.2-2,1.11,1.11,0,0,0-1-.45c-0.37,0-.55-0.06-0.55-0.19s0.1-.14.29-0.14h2.81l5.23,7.2v-6.16a2.37,2.37,0,0,0,0-.64,0.42,0.42,0,0,0-.35-0.09h-0.6c-0.28,0-.42-0.06-0.42-0.17s0.07-.11.21-0.12,0.64,0,1.5,0,1.28,0,1.42,0S157.25,114.43,157.25,114.51Z"/><path class="cls-1" d="M166.95,117a0.25,0.25,0,0,1-.27.3c-0.19,0-.3-0.14-0.31-0.41a3.48,3.48,0,0,0-.38-1.44,2,2,0,0,0-1.93-.77l-0.69,0v8.91q0,0.42.64,0.44c0.43,0,.64.07,0.64,0.18s-0.13.16-.38,0.16h-3.61c-0.3,0-.44-0.05-0.44-0.16a0.8,0.8,0,0,1,.73-0.18,0.92,0.92,0,0,0,.35,0,0.25,0.25,0,0,0,.2-0.23q0-.19,0-1.12v-8a4.3,4.3,0,0,0-2.25.35,2.56,2.56,0,0,0-.7,1.76c0,0.34-.14.5-0.29,0.5s-0.2-.17-0.2-0.5,0.07-1.25.2-2.49h5.16l2.79,0a2,2,0,0,0,.47-0.07l0,0.46,0.07,0.78,0.07,0.91,0,0.39C166.94,116.91,166.95,117,166.95,117Z"/><path class="cls-1" d="M177.76,119.46a5.13,5.13,0,0,1-1.4,3.64,4.5,4.5,0,0,1-3.41,1.49,4.86,4.86,0,0,1-3.62-1.51,5.51,5.51,0,0,1-.07-7.43,4.8,4.8,0,0,1,3.6-1.45,4.57,4.57,0,0,1,3.49,1.52A5.3,5.3,0,0,1,177.76,119.46Zm-2.08.07a6.93,6.93,0,0,0-1-4,2.12,2.12,0,0,0-1.84-1,2.46,2.46,0,0,0-2.35,1.77,8.3,8.3,0,0,0-.51,3.14,6.73,6.73,0,0,0,.8,3.56,2.48,2.48,0,0,0,2.22,1.28Q175.68,124.28,175.68,119.52Z"/><path class="cls-1" d="M182.44,124.3a2.52,2.52,0,0,1-1.24,2.35,3.05,3.05,0,0,1-1.46.53c-0.12,0-.18,0-0.18-0.13a0.21,0.21,0,0,1,.22-0.18q1.86-.44,1.86-1.91a1.34,1.34,0,0,0-.49-1.22,0.73,0.73,0,0,1-.82.84,1,1,0,0,1-.72-0.3,1,1,0,0,1-.3-0.75,1.27,1.27,0,0,1,.38-1,1.31,1.31,0,0,1,1-.37,1.62,1.62,0,0,1,1.3.59A2.23,2.23,0,0,1,182.44,124.3Z"/><path class="cls-1" d="M191.14,124.26c0,0.13-.16.2-0.49,0.2h-5.41c-0.35,0-.53-0.07-0.53-0.2s0.1-.2.31-0.2l1,0c0.46,0,.71-0.13.74-0.34a10.56,10.56,0,0,0,.05-1.38v-10.4a4.21,4.21,0,0,0,0-.84,0.29,0.29,0,0,0-.31-0.13L185,111l-0.36,0c-0.18,0-.27-0.05-0.27-0.16s0.09-.18.27-0.2a6.28,6.28,0,0,0,2.09-.63,5.55,5.55,0,0,0,1.7-1.23,0.76,0.76,0,0,1,.33-0.2,0.18,0.18,0,0,1,.18.22v14.07a2.92,2.92,0,0,0,.08.93,0.71,0.71,0,0,0,.54.16h1.22Q191.14,124,191.14,124.26Z"/><path class="cls-1" d="M203.57,112.4a0.81,0.81,0,0,1-.15.39l-0.9,1.56q-0.54.87-1.62,2.67-6,10-6,12.39c0,0.28.06,0.42,0.18,0.42a1.7,1.7,0,0,0,.6-0.45,1.19,1.19,0,0,1,.84-0.3,1.27,1.27,0,0,1,1.53,1.32,1.33,1.33,0,0,1-.51,1.08,2,2,0,0,1-1.29.42,2,2,0,0,1-1.53-.6,2.3,2.3,0,0,1-.57-1.65q0-1.71,2.13-5.84,1.08-2.1,4.1-7.28l1.14-1.95h-5.69a17,17,0,0,0-2.79.12q-0.63.18-1,1.92-0.24,1.17-.6,1.17a0.28,0.28,0,0,1-.33-0.3,3.34,3.34,0,0,1,.15-0.81l0.6-3.66a2,2,0,0,1,.39-0.9q1.77,0.09,4.61.09,4.79,0,5,0l1.32,0C203.45,112.13,203.57,112.22,203.57,112.4Z"/><rect class="cls-1" x="81.18" y="122.22" width="11.07" height="2.24"/><line class="cls-2" y1="144.19" x2="250" y2="144.19"/></svg>