<svg id="Layer_1" data-name="Layer 1" xmlns="http://www.w3.org/2000/svg" viewBox="0 0 250 79.56"><defs><style>.cls-1{fill:#231f20;}.cls-2{fill:none;stroke:#231f20;stroke-miterlimit:10;stroke-width:0.25px;}</style></defs><title>16</title><path class="cls-1" d="M56.91,0.07a0.49,0.49,0,0,1-.27.27,2.46,2.46,0,0,0-.95,1,1.28,1.28,0,0,0-.13.52q0,0.34.17,0.34A0.46,0.46,0,0,0,56,2a0.41,0.41,0,0,1,.35-0.16,0.48,0.48,0,0,1,.52.55,0.72,0.72,0,0,1-.23.54,0.82,0.82,0,0,1-.59.22,0.85,0.85,0,0,1-.65-0.28,1,1,0,0,1-.25-0.7A2.31,2.31,0,0,1,56.08.42,2.38,2.38,0,0,1,56.49.16,1.18,1.18,0,0,1,56.84,0,0.06,0.06,0,0,1,56.91.07Zm2.18,0a0.48,0.48,0,0,1-.27.27,2.47,2.47,0,0,0-.95,1,1.26,1.26,0,0,0-.13.51q0,0.35.17,0.35A0.46,0.46,0,0,0,58.16,2a0.42,0.42,0,0,1,.37-0.16,0.47,0.47,0,0,1,.51.55,0.71,0.71,0,0,1-.24.54,0.82,0.82,0,0,1-.58.23,0.85,0.85,0,0,1-.65-0.28,1,1,0,0,1-.25-0.7A2.32,2.32,0,0,1,58.26.41,2.13,2.13,0,0,1,58.67.15,1.21,1.21,0,0,1,59,0,0.06,0.06,0,0,1,59.09.07Z"/><path class="cls-1" d="M65.4,7.37a16.64,16.64,0,0,1-.79,2.2L64.43,10a0.24,0.24,0,0,1-.13.16,3.22,3.22,0,0,1-.52,0H62.92l-1.18,0-0.53,0H58.07l-0.55,0-0.55,0c-0.13,0-.2,0-0.2-0.11s0.12-.12.35-0.12a3.47,3.47,0,0,0,.72,0,0.63,0.63,0,0,0,.33-0.08,0.74,0.74,0,0,0,.16-0.3q0-.08.24-0.57l3.08-7.5A2.82,2.82,0,0,0,61.9.74q0-.21-0.71-0.21l-0.41.06A0.11,0.11,0,0,1,60.66.45q0-.16.68-0.16h0.61l0.66,0q0.69,0,1.47,0h0.27A0.26,0.26,0,0,1,64.52.3a0.13,0.13,0,0,1,.14.15,0.14,0.14,0,0,1-.17.13H64a1.43,1.43,0,0,0-.61.08,4.24,4.24,0,0,0-.53,1.11L59.94,9.13q-0.11.27-.17,0.44l0,0.1q0,0.23.58,0.23A12.26,12.26,0,0,0,63,9.7a2.89,2.89,0,0,0,1.77-1.58,6.69,6.69,0,0,0,.35-0.75,0.15,0.15,0,0,1,.13-0.13A0.11,0.11,0,0,1,65.4,7.37Z"/><path class="cls-1" d="M69.35,4.16a0.48,0.48,0,0,1-.07.17Q69.18,4.49,69,5L67.33,8.72a3.61,3.61,0,0,0-.32.93,0.34,0.34,0,0,0,.4.38A1.33,1.33,0,0,0,68,9.85a1.49,1.49,0,0,0,.53-0.45,0.35,0.35,0,0,1,.2-0.17,0.07,0.07,0,0,1,.08.08,0.93,0.93,0,0,1-.4.5,2,2,0,0,1-1.34.5,1.26,1.26,0,0,1-.81-0.25A0.79,0.79,0,0,1,66,9.42a3.29,3.29,0,0,1,.35-1.14L67.78,5A1.11,1.11,0,0,1,68,4.64a0.17,0.17,0,0,0,0-.1,0.72,0.72,0,0,0-.62-0.17,0.12,0.12,0,0,1-.11-0.1,0.11,0.11,0,0,1,.11-0.13l0.21,0a5,5,0,0,0,.64,0,2.43,2.43,0,0,0,.83-0.1A0.65,0.65,0,0,1,69.25,4,0.09,0.09,0,0,1,69.35,4.16Zm1-2.64a0.51,0.51,0,0,1-.55.59,0.64,0.64,0,0,1-.47-0.18,0.59,0.59,0,0,1-.18-0.45A0.55,0.55,0,0,1,69.78.9,0.51,0.51,0,0,1,70.33,1.51Z"/><path class="cls-1" d="M76.32,1.06a0.48,0.48,0,0,1-.52.55,0.46,0.46,0,0,1-.32-0.12,0.36,0.36,0,0,1-.13-0.28A0.61,0.61,0,0,1,75.53.89,0.44,0.44,0,0,0,75.59.71q0-.35-0.59-0.35a1.18,1.18,0,0,0-1,.53A9.91,9.91,0,0,0,73,3L72.65,4.1h1.64a0.13,0.13,0,0,1,.16.15q0,0.15-.2.15H72.59L71.36,7.76a17,17,0,0,1-2.59,5.07,3.65,3.65,0,0,1-.94.81,2.13,2.13,0,0,1-1,.23q-1.2,0-1.2-.81a0.53,0.53,0,0,1,.62-0.58,0.35,0.35,0,0,1,.42.36,0.56,0.56,0,0,1-.14.3,0.3,0.3,0,0,0-.08.19q0,0.31.42,0.31a1.53,1.53,0,0,0,1.26-.71,11.47,11.47,0,0,0,1.07-2.46L71.32,4.4h-1a0.56,0.56,0,0,1-.25.06c-0.11,0-.17,0-0.17-0.11s0.12-.22.35-0.24h1.22a15.16,15.16,0,0,1,1.39-2.75A2.7,2.7,0,0,1,75.06.16,1.54,1.54,0,0,1,76,.4,0.77,0.77,0,0,1,76.32,1.06Z"/><path class="cls-1" d="M78.8,5A1.46,1.46,0,0,1,78,6.29a3.94,3.94,0,0,1-2.08.5,9.89,9.89,0,0,1-1-.06,4.67,4.67,0,0,0-.52,2A1.05,1.05,0,0,0,75.49,10a2.32,2.32,0,0,0,1.68-.89,0.6,0.6,0,0,1,.24-0.2,0.06,0.06,0,0,1,.07.07,1.28,1.28,0,0,1-.66.8,2.69,2.69,0,0,1-1.58.55,2.17,2.17,0,0,1-1.51-.54,1.75,1.75,0,0,1-.59-1.35,4.13,4.13,0,0,1,1.72-3.06,4.41,4.41,0,0,1,2.7-1.3Q78.8,4.07,78.8,5Zm-1-.24a0.39,0.39,0,0,0-.44-0.44,1.45,1.45,0,0,0-.89.34A5.85,5.85,0,0,0,75,6.54h0.38a2.82,2.82,0,0,0,1.54-.48A1.53,1.53,0,0,0,77.79,4.79Z"/><path class="cls-1" d="M84.55,4.16a0.48,0.48,0,0,1-.07.17q-0.1.17-.33,0.69L82.53,8.72a3.61,3.61,0,0,0-.32.93,0.34,0.34,0,0,0,.4.38,1.33,1.33,0,0,0,.62-0.19,1.49,1.49,0,0,0,.53-0.45,0.35,0.35,0,0,1,.2-0.17,0.07,0.07,0,0,1,.08.08,0.93,0.93,0,0,1-.4.5,2,2,0,0,1-1.34.5,1.26,1.26,0,0,1-.81-0.25,0.79,0.79,0,0,1-.32-0.65,3.29,3.29,0,0,1,.35-1.14L83,5a1.11,1.11,0,0,1,.17-0.37,0.17,0.17,0,0,0,0-.1,0.72,0.72,0,0,0-.62-0.17,0.12,0.12,0,0,1-.11-0.1,0.11,0.11,0,0,1,.11-0.13l0.21,0a5,5,0,0,0,.64,0,2.43,2.43,0,0,0,.83-0.1A0.65,0.65,0,0,1,84.45,4,0.09,0.09,0,0,1,84.55,4.16Zm1-2.64a0.51,0.51,0,0,1-.55.59,0.64,0.64,0,0,1-.47-0.18,0.59,0.59,0,0,1-.18-0.45A0.55,0.55,0,0,1,85,.9,0.51,0.51,0,0,1,85.52,1.51Z"/><path class="cls-1" d="M89.69,5.15a0.59,0.59,0,0,1-.16.41,0.48,0.48,0,0,1-.37.17,0.37,0.37,0,0,1-.42-0.41A0.28,0.28,0,0,1,89,5l0.13,0a0.38,0.38,0,0,0,.15,0A0.08,0.08,0,0,0,89.4,5a0.6,0.6,0,0,0-.32-0.46,1.17,1.17,0,0,0-.66-0.22,1.08,1.08,0,0,0-.76.29,0.92,0.92,0,0,0-.31.7,8.4,8.4,0,0,0,.66,2,2.26,2.26,0,0,1,.16.86A2.18,2.18,0,0,1,87.5,9.7a2.21,2.21,0,0,1-1.63.65,2.16,2.16,0,0,1-1.42-.47,1.46,1.46,0,0,1-.57-1.17,0.92,0.92,0,0,1,.23-0.65A0.76,0.76,0,0,1,84.7,7.8a0.64,0.64,0,0,1,.46.18,0.59,0.59,0,0,1,.19.44,0.37,0.37,0,0,1-.41.42q-0.44,0-.44-0.3a0.59,0.59,0,0,1,0-.2l0-.11a0.11,0.11,0,0,0-.11-0.14,0.29,0.29,0,0,0-.23.19,0.85,0.85,0,0,0-.11.42,1.25,1.25,0,0,0,.46,1,1.58,1.58,0,0,0,1.09.41,1.4,1.4,0,0,0,1-.35A1.15,1.15,0,0,0,87,8.83a4.35,4.35,0,0,0-.3-1.24,4.26,4.26,0,0,1-.29-1.36A2.25,2.25,0,0,1,87,4.69a1.76,1.76,0,0,1,1.36-.63,1.43,1.43,0,0,1,.93.32A1,1,0,0,1,89.69,5.15Z"/><path class="cls-1" d="M101.18,4.89A6.5,6.5,0,0,1,100,8.6a3.21,3.21,0,0,1-2.49,1.74,1.18,1.18,0,0,1-.79-0.29,1.34,1.34,0,0,1-.44-0.78,3.72,3.72,0,0,1,0-.68q-0.83,1.75-2.11,1.75A1.32,1.32,0,0,1,93.2,10a1.12,1.12,0,0,1-.37-0.86,4.07,4.07,0,0,1,.4-1.6l0.85-2a2.17,2.17,0,0,0,.21-0.81A0.31,0.31,0,0,0,94,4.41a1.26,1.26,0,0,0-.72.37,2.69,2.69,0,0,0-.66.8,0.21,0.21,0,0,1-.16.15c-0.06,0-.08,0-0.08-0.11a1.62,1.62,0,0,1,.55-0.82,2.14,2.14,0,0,1,1.51-.75,0.83,0.83,0,0,1,1,.82A4.16,4.16,0,0,1,95,6.44L94.14,8.27a3.05,3.05,0,0,0-.32,1.2,0.48,0.48,0,0,0,.48.59q1.17,0,2.4-3l0.72-1.73,0.27-.8a0.21,0.21,0,0,1,.2-0.18h0.17l0.34,0,0.4-.07,0.13,0c0.08,0,.11,0,0.11.08a0.16,0.16,0,0,1-.06.11q-0.07.14-.16,0.35L97.49,8.1a3.62,3.62,0,0,0-.31,1.27,0.58,0.58,0,0,0,.61.69q1,0,2.22-2a5.58,5.58,0,0,0,.89-2.87q0-.31-0.18-0.31l-0.14,0h-0.11a0.34,0.34,0,0,1-.4-0.35,0.49,0.49,0,0,1,.17-0.37,0.57,0.57,0,0,1,.4-0.16Q101.18,4.06,101.18,4.89Z"/><path class="cls-1" d="M108.11,9.1a0.65,0.65,0,0,1-.27.33,3,3,0,0,1-1.82.85,0.91,0.91,0,0,1-.64-0.22,0.74,0.74,0,0,1-.24-0.57,3.22,3.22,0,0,1,.34-1.06l1.25-2.78a3.26,3.26,0,0,0,.31-0.86,0.4,0.4,0,0,0-.47-0.44,2.31,2.31,0,0,0-1.41.79,7,7,0,0,0-1,1.1,10.39,10.39,0,0,0-.78,1.53L102.5,9.82a1.42,1.42,0,0,1-.16.31,0.25,0.25,0,0,1-.17,0h-1s-0.06,0-.06,0a1.09,1.09,0,0,1,.1-0.28L105.13,1a2.93,2.93,0,0,0,.21-0.55,0.11,0.11,0,0,0-.06-0.13h-0.46q-0.34,0-.34-0.12s0-.06.1-0.06h1.2l0.59,0,0.23,0a0.1,0.1,0,0,1,.13.1,0.26,0.26,0,0,1-.06.17,2.93,2.93,0,0,1-.18.38L104.2,5.81a8.28,8.28,0,0,1,1.48-1.39A2.24,2.24,0,0,1,106.92,4a1.39,1.39,0,0,1,.86.25,0.76,0.76,0,0,1,.33.63,3.23,3.23,0,0,1-.33,1.18L106.5,9a2.86,2.86,0,0,0-.24.67,0.19,0.19,0,0,0,.21.21,2.36,2.36,0,0,0,1.29-.72A0.66,0.66,0,0,1,108,9,0.07,0.07,0,0,1,108.11,9.1Z"/><path class="cls-1" d="M115.5,4.16a1.42,1.42,0,0,1-.11.3l-1.87,4.22a2.54,2.54,0,0,0-.27.93,0.32,0.32,0,0,0,.37.37,1.48,1.48,0,0,0,1.1-.75,0.32,0.32,0,0,1,.17-0.16,0,0,0,0,1,.06.06,1,1,0,0,1-.31.49,2,2,0,0,1-1.48.66,1.14,1.14,0,0,1-.71-0.21,0.66,0.66,0,0,1-.28-0.55,1.53,1.53,0,0,1,.1-0.49,2.52,2.52,0,0,1-2.06,1.3,1.61,1.61,0,0,1-1.2-.47,1.64,1.64,0,0,1-.47-1.21,3.66,3.66,0,0,1,.54-1.76,6.74,6.74,0,0,1,1.43-1.75,3.54,3.54,0,0,1,2.23-1.07,1.06,1.06,0,0,1,1.19,1l0.35-.75a0.34,0.34,0,0,1,.2-0.23l0.17,0,0.2,0a1.38,1.38,0,0,0,.48-0.07l0.1,0A0.08,0.08,0,0,1,115.5,4.16Zm-1.78,1.17a1,1,0,0,0-.26-0.7,0.9,0.9,0,0,0-.67-0.27,1.79,1.79,0,0,0-1.36.83,8.8,8.8,0,0,0-1.2,2A4.74,4.74,0,0,0,109.78,9a0.78,0.78,0,0,0,.79,1,1.52,1.52,0,0,0,1-.49,4,4,0,0,0,.88-1.24l1.1-2.36A1.62,1.62,0,0,0,113.72,5.32Z"/><path class="cls-1" d="M120.08,4.23q0,0.2-.59.21H118.7l-1.91,4.28a3.19,3.19,0,0,0-.31.88q0,0.3.44,0.3A1.41,1.41,0,0,0,118,9.23a0.32,0.32,0,0,1,.17-0.14,0.09,0.09,0,0,1,.11.1,1.17,1.17,0,0,1-.47.59,1.9,1.9,0,0,1-1.29.47,1.29,1.29,0,0,1-.83-0.25,0.79,0.79,0,0,1-.32-0.65,2.84,2.84,0,0,1,.32-0.94l1.85-4H117c-0.16,0-.24,0-0.24-0.09a0.17,0.17,0,0,1,.2-0.17h0.74L118,3.53a0.5,0.5,0,0,1,.2-0.31l0.22,0,0.23,0a1.26,1.26,0,0,0,.45-0.13l0.1,0a0.06,0.06,0,0,1,.07.06l-0.16.33-0.31.67h0.88l0.17,0,0.11,0C120,4.11,120.08,4.15,120.08,4.23Z"/><path class="cls-1" d="M130.88,4.89A6.5,6.5,0,0,1,129.7,8.6a3.2,3.2,0,0,1-2.49,1.74,1.18,1.18,0,0,1-.79-0.29A1.34,1.34,0,0,1,126,9.27a3.73,3.73,0,0,1,0-.68q-0.83,1.75-2.11,1.75A1.32,1.32,0,0,1,122.9,10a1.12,1.12,0,0,1-.37-0.86,4.07,4.07,0,0,1,.4-1.6l0.85-2A2.16,2.16,0,0,0,124,4.79a0.31,0.31,0,0,0-.32-0.38,1.26,1.26,0,0,0-.72.37,2.69,2.69,0,0,0-.66.8,0.21,0.21,0,0,1-.16.15c-0.06,0-.08,0-0.08-0.11a1.62,1.62,0,0,1,.55-0.82,2.14,2.14,0,0,1,1.51-.75,0.83,0.83,0,0,1,1,.82,4.16,4.16,0,0,1-.45,1.57l-0.83,1.83a3.06,3.06,0,0,0-.32,1.2,0.48,0.48,0,0,0,.48.59q1.17,0,2.4-3l0.72-1.73,0.27-.8a0.21,0.21,0,0,1,.2-0.18h0.17l0.34,0,0.4-.07,0.13,0c0.08,0,.11,0,0.11.08a0.16,0.16,0,0,1-.06.11q-0.07.14-.16,0.35L127.19,8.1a3.62,3.62,0,0,0-.31,1.27,0.58,0.58,0,0,0,.61.69q1,0,2.22-2a5.58,5.58,0,0,0,.89-2.87c0-.21-0.06-0.31-0.18-0.31l-0.14,0h-0.11a0.34,0.34,0,0,1-.4-0.35,0.49,0.49,0,0,1,.17-0.37,0.58,0.58,0,0,1,.41-0.16Q130.88,4.06,130.88,4.89Z"/><path class="cls-1" d="M136.9,5a1.46,1.46,0,0,1-.82,1.26,3.94,3.94,0,0,1-2.08.5,9.9,9.9,0,0,1-1-.06,4.66,4.66,0,0,0-.52,2A1.05,1.05,0,0,0,133.6,10a2.32,2.32,0,0,0,1.68-.89,0.6,0.6,0,0,1,.24-0.2,0.06,0.06,0,0,1,.07.07,1.28,1.28,0,0,1-.66.8,2.69,2.69,0,0,1-1.58.55,2.17,2.17,0,0,1-1.51-.54,1.75,1.75,0,0,1-.59-1.35A4.13,4.13,0,0,1,133,5.37a4.41,4.41,0,0,1,2.7-1.3Q136.9,4.07,136.9,5Zm-1-.24a0.39,0.39,0,0,0-.44-0.44,1.45,1.45,0,0,0-.89.34,5.86,5.86,0,0,0-1.46,1.85h0.38A2.82,2.82,0,0,0,135,6.08,1.53,1.53,0,0,0,135.9,4.79Z"/><path class="cls-1" d="M148.42,5.15a3.43,3.43,0,0,1-.35,1.19l-1,2.38a2.47,2.47,0,0,0-.25.84,0.27,0.27,0,0,0,.33.28,1.32,1.32,0,0,0,1-.53,0.46,0.46,0,0,1,.27-0.19c0.06,0,.09,0,0.09.06a1,1,0,0,1-.48.51,2.3,2.3,0,0,1-1.31.51A1,1,0,0,1,146,10a0.65,0.65,0,0,1-.25-0.53A3.07,3.07,0,0,1,146,8.39l1-2.38a3.86,3.86,0,0,0,.37-1.1A0.41,0.41,0,0,0,147,4.41a2,2,0,0,0-1.43.94,11.15,11.15,0,0,0-1.26,2.39l-0.85,2a0.79,0.79,0,0,1-.3.46h-0.93c-0.07,0-.1,0-0.1-0.07a0.44,0.44,0,0,1,.06-0.15l0.16-.32,1.47-3.47a5,5,0,0,0,.47-1.44,0.36,0.36,0,0,0-.42-0.39,2.15,2.15,0,0,0-1.36.92q-0.24.28-.75,1a6.27,6.27,0,0,0-.52,1.06L140.2,9.8a0.67,0.67,0,0,1-.25.4l-0.11,0-0.27,0a1.74,1.74,0,0,0-.52,0H139a0.06,0.06,0,0,1-.07-0.07l0.17-.34,2.23-5.19a0.24,0.24,0,0,0,0-.1q0-.13-0.25-0.13t-0.4-.14c0-.07,0-0.1.14-0.1l0.4,0,0.4,0a2,2,0,0,0,.81-0.1l0.08,0a0.08,0.08,0,0,1,.09.1,2.18,2.18,0,0,1-.13.31,6.23,6.23,0,0,0-.27.69l-0.07.2,0.54-.59a2,2,0,0,1,1.55-.71,1,1,0,0,1,.82.29,1.79,1.79,0,0,1,.27,1,2.47,2.47,0,0,1,2-1.33,1.2,1.2,0,0,1,.85.3A1,1,0,0,1,148.42,5.15Z"/><path class="cls-1" d="M155.89,4.16a1.42,1.42,0,0,1-.11.3l-1.87,4.22a2.53,2.53,0,0,0-.27.93A0.32,0.32,0,0,0,154,10a1.48,1.48,0,0,0,1.1-.75,0.32,0.32,0,0,1,.17-0.16,0,0,0,0,1,.06.06,1,1,0,0,1-.31.49,2,2,0,0,1-1.48.66,1.13,1.13,0,0,1-.71-0.21,0.66,0.66,0,0,1-.28-0.55,1.52,1.52,0,0,1,.1-0.49,2.52,2.52,0,0,1-2.06,1.3,1.61,1.61,0,0,1-1.2-.47,1.64,1.64,0,0,1-.47-1.21,3.65,3.65,0,0,1,.54-1.76,6.73,6.73,0,0,1,1.43-1.75,3.54,3.54,0,0,1,2.23-1.07,1.06,1.06,0,0,1,1.19,1l0.35-.75a0.34,0.34,0,0,1,.2-0.23l0.17,0,0.2,0a1.38,1.38,0,0,0,.48-0.07l0.1,0A0.08,0.08,0,0,1,155.89,4.16Zm-1.78,1.17a1,1,0,0,0-.26-0.7,0.9,0.9,0,0,0-.67-0.27,1.79,1.79,0,0,0-1.36.83,8.78,8.78,0,0,0-1.2,2A4.74,4.74,0,0,0,150.16,9a0.78,0.78,0,0,0,.79,1,1.52,1.52,0,0,0,1-.49,4,4,0,0,0,.88-1.24l1.1-2.36A1.61,1.61,0,0,0,154.11,5.32Z"/><path class="cls-1" d="M163,4.66a0.66,0.66,0,0,1-.16.45,0.52,0.52,0,0,1-.4.18A0.37,0.37,0,0,1,162,4.89V4.57q0-.35-0.24-0.35a4.59,4.59,0,0,0-1.55,1.46q-0.47.55-.59,0.66a1.28,1.28,0,0,1-.38.21l0.28,0a1,1,0,0,1,1,.95A9.24,9.24,0,0,1,160.35,9a3.77,3.77,0,0,0-.07.64,0.24,0.24,0,0,0,.25.28,1.13,1.13,0,0,0,.8-0.49,2.82,2.82,0,0,0,.59-1.14,0.27,0.27,0,0,1,.2-0.25,0.11,0.11,0,0,1,.11.13,2.89,2.89,0,0,1-.42,1,1.8,1.8,0,0,1-1.65,1,0.89,0.89,0,0,1-1-1,8.11,8.11,0,0,1,.22-1.5,3,3,0,0,0,.07-0.61,0.44,0.44,0,0,0-.37-0.44,1.8,1.8,0,0,0-.51-0.07l-0.42,0L156.76,10l-0.11.08-0.28,0-0.35,0-0.31,0-0.08,0a0.07,0.07,0,0,1-.08-0.08,0.46,0.46,0,0,1,.07-0.18l0.17-.4,3.46-8.28q0-.13.14-0.35l0.1-.25a0.32,0.32,0,0,0,0-.13c0-.11-0.09-0.17-0.27-0.17l-0.33,0-0.33,0c-0.1,0-.16,0-0.16-0.09A0.11,0.11,0,0,1,158.52.2l0.63,0A9.78,9.78,0,0,0,160.68.1,0.35,0.35,0,0,1,160.83,0a0.06,0.06,0,0,1,.07.07,5.11,5.11,0,0,1-.28.74l-2,4.79-0.31.78h0.48a0.76,0.76,0,0,0,.47-0.13A8.11,8.11,0,0,0,160,5.48a8.89,8.89,0,0,1,1.22-1.25,1.44,1.44,0,0,1,.88-0.32A0.73,0.73,0,0,1,163,4.66Z"/><path class="cls-1" d="M168.52,5a1.46,1.46,0,0,1-.82,1.26,3.94,3.94,0,0,1-2.08.5,9.9,9.9,0,0,1-1-.06,4.66,4.66,0,0,0-.52,2A1.05,1.05,0,0,0,165.22,10a2.32,2.32,0,0,0,1.68-.89,0.6,0.6,0,0,1,.24-0.2,0.06,0.06,0,0,1,.07.07,1.28,1.28,0,0,1-.66.8,2.69,2.69,0,0,1-1.58.55,2.17,2.17,0,0,1-1.51-.54,1.75,1.75,0,0,1-.59-1.35,4.13,4.13,0,0,1,1.72-3.06,4.41,4.41,0,0,1,2.7-1.3Q168.52,4.07,168.52,5Zm-1-.24a0.39,0.39,0,0,0-.44-0.44,1.45,1.45,0,0,0-.89.34,5.86,5.86,0,0,0-1.46,1.85h0.38a2.82,2.82,0,0,0,1.54-.48A1.53,1.53,0,0,0,167.52,4.79Z"/><path class="cls-1" d="M176.92,6.35a3.91,3.91,0,0,1-1.51,3,3.71,3.71,0,0,1-2.47,1,1.88,1.88,0,0,1-1.44-.61,2.21,2.21,0,0,1-.57-1.57,3.52,3.52,0,0,1,.47-1.68A4.66,4.66,0,0,1,172.64,5,3.86,3.86,0,0,1,175,4.1a1.76,1.76,0,0,1,1.4.62A2.4,2.4,0,0,1,176.92,6.35Zm-1.09-.92a0.9,0.9,0,0,0-1-1.07q-1.17,0-2,1.68a6.71,6.71,0,0,0-.82,3,0.89,0.89,0,0,0,.95,1.06,2.31,2.31,0,0,0,2-1.53A7,7,0,0,0,175.83,5.43Z"/><path class="cls-1" d="M184.38,1.06a0.48,0.48,0,0,1-.52.55,0.46,0.46,0,0,1-.32-0.12,0.36,0.36,0,0,1-.13-0.28,0.61,0.61,0,0,1,.18-0.32,0.45,0.45,0,0,0,.06-0.18q0-.35-0.59-0.35a1.18,1.18,0,0,0-1,.53,9.91,9.91,0,0,0-1,2.15L180.71,4.1h1.64a0.13,0.13,0,0,1,.16.15c0,0.1-.07.15-0.2,0.15h-1.65l-1.23,3.36a17,17,0,0,1-2.59,5.07,3.64,3.64,0,0,1-.94.81,2.13,2.13,0,0,1-1,.23q-1.2,0-1.2-.81a0.53,0.53,0,0,1,.62-0.58,0.35,0.35,0,0,1,.42.36,0.56,0.56,0,0,1-.14.3,0.3,0.3,0,0,0-.08.19q0,0.31.42,0.31a1.53,1.53,0,0,0,1.26-.71,11.45,11.45,0,0,0,1.07-2.46l2.13-6.09h-1a0.56,0.56,0,0,1-.25.06c-0.11,0-.17,0-0.17-0.11s0.12-.22.35-0.24h1.22a15.1,15.1,0,0,1,1.39-2.75,2.7,2.7,0,0,1,2.25-1.2A1.54,1.54,0,0,1,184,.4,0.77,0.77,0,0,1,184.38,1.06Z"/><path class="cls-1" d="M187.24,4.16a0.48,0.48,0,0,1-.07.17q-0.1.17-.33,0.69l-1.63,3.71a3.62,3.62,0,0,0-.33.93,0.34,0.34,0,0,0,.4.38,1.33,1.33,0,0,0,.61-0.19,1.5,1.5,0,0,0,.53-0.45,0.35,0.35,0,0,1,.2-0.17,0.07,0.07,0,0,1,.08.08,0.93,0.93,0,0,1-.4.5,2,2,0,0,1-1.34.5,1.26,1.26,0,0,1-.81-0.25,0.79,0.79,0,0,1-.32-0.65,3.3,3.3,0,0,1,.35-1.14L185.67,5a1.12,1.12,0,0,1,.17-0.37,0.17,0.17,0,0,0,0-.1,0.72,0.72,0,0,0-.62-0.17,0.12,0.12,0,0,1-.11-0.1,0.11,0.11,0,0,1,.11-0.13l0.21,0a5,5,0,0,0,.64,0,2.43,2.43,0,0,0,.83-0.1,0.66,0.66,0,0,1,.2-0.06A0.09,0.09,0,0,1,187.24,4.16Zm1-2.64a0.51,0.51,0,0,1-.55.59,0.64,0.64,0,0,1-.47-0.18A0.59,0.59,0,0,1,187,1.48,0.55,0.55,0,0,1,187.66.9,0.51,0.51,0,0,1,188.21,1.51Z"/><path class="cls-1" d="M191.79,4.23q0,0.2-.59.21H190.4l-1.91,4.28a3.18,3.18,0,0,0-.31.88q0,0.3.44,0.3a1.41,1.41,0,0,0,1.13-.67,0.31,0.31,0,0,1,.17-0.14,0.09,0.09,0,0,1,.11.1,1.17,1.17,0,0,1-.47.59,1.9,1.9,0,0,1-1.29.47,1.29,1.29,0,0,1-.83-0.25,0.79,0.79,0,0,1-.32-0.65,2.84,2.84,0,0,1,.33-0.94l1.85-4h-0.58c-0.16,0-.24,0-0.24-0.09a0.17,0.17,0,0,1,.2-0.17h0.74l0.24-.61a0.5,0.5,0,0,1,.2-0.31l0.22,0,0.23,0a1.26,1.26,0,0,0,.45-0.13l0.1,0a0.06,0.06,0,0,1,.07.06l-0.16.33-0.31.67h0.88l0.17,0,0.11,0C191.74,4.11,191.79,4.15,191.79,4.23Z"/><path class="cls-1" d="M192.2,9.46a0.75,0.75,0,0,1-.79.79,0.6,0.6,0,0,1-.69-0.66,0.8,0.8,0,0,1,.82-0.82A0.6,0.6,0,0,1,192.2,9.46Z"/><path class="cls-1" d="M78.34,17.3q-0.44,1.22-.68,2.08a0.84,0.84,0,0,1-.3.59,0.1,0.1,0,0,1-.11-0.11,4.18,4.18,0,0,1,.12-0.5,3.12,3.12,0,0,0,.12-0.81,0.82,0.82,0,0,0-.66-0.89,4.11,4.11,0,0,0-.92-0.07q-0.4,0-.74,0L71.89,25.8l-0.2.49a1,1,0,0,0-.09.27q0,0.32.9,0.32,0.13,0,.13.08t-0.24.16H72q-0.59,0-1.4,0l-1.12,0-0.49,0c-0.1,0-.16,0-0.16-0.08s0.09-.15.28-0.15H69.4a1,1,0,0,0,.71-0.18,3.63,3.63,0,0,0,.53-1l3.19-8.07H73.28a3.06,3.06,0,0,0-2.16.66,5.94,5.94,0,0,0-1,1.48,0.24,0.24,0,0,1-.2.17,0.07,0.07,0,0,1-.07-0.09,0.43,0.43,0,0,1,0-.14l0.21-.48,0.47-1q0.18-.36.41-0.87,0.48,0,3.53,0Q76.22,17.34,78.34,17.3Z"/><path class="cls-1" d="M81.81,21.68a0.71,0.71,0,0,1-.18.49,0.56,0.56,0,0,1-.42.2q-0.23,0-.23-0.16l0-.14a0.5,0.5,0,0,0,0-.16,0.3,0.3,0,0,0-.34-0.34,2,2,0,0,0-1.14.79,8.34,8.34,0,0,0-1.39,2.22l-1,2.23a0.47,0.47,0,0,1-.24.32,3.16,3.16,0,0,0-.44,0,1.37,1.37,0,0,0-.38,0H76q-0.13,0-.13-0.06l0-.06L76,26.9l2.39-5.44c0-.08-0.06-0.11-0.18-0.11H77.81q-0.21,0-.21-0.1a1.3,1.3,0,0,1,.74-0.11,3.6,3.6,0,0,0,1-.13l0.13,0a0.07,0.07,0,0,1,.08.08,2.83,2.83,0,0,1-.18.52l-0.52,1.27q1.3-1.81,2.29-1.81A0.58,0.58,0,0,1,81.81,21.68Z"/><path class="cls-1" d="M87.93,21.12a1.42,1.42,0,0,1-.11.3L86,25.63a2.54,2.54,0,0,0-.27.93,0.32,0.32,0,0,0,.37.37,1.48,1.48,0,0,0,1.1-.75A0.32,0.32,0,0,1,87.33,26a0,0,0,0,1,.06.06,1,1,0,0,1-.31.49,2,2,0,0,1-1.48.66A1.14,1.14,0,0,1,84.87,27a0.66,0.66,0,0,1-.28-0.55A1.53,1.53,0,0,1,84.7,26a2.52,2.52,0,0,1-2.06,1.3,1.61,1.61,0,0,1-1.2-.47A1.64,1.64,0,0,1,81,25.6a3.66,3.66,0,0,1,.54-1.76,6.74,6.74,0,0,1,1.43-1.75A3.54,3.54,0,0,1,85.16,21a1.06,1.06,0,0,1,1.19,1l0.35-.75a0.34,0.34,0,0,1,.2-0.23l0.17,0,0.2,0a1.38,1.38,0,0,0,.48-0.07l0.1,0A0.08,0.08,0,0,1,87.93,21.12Zm-1.78,1.17a1,1,0,0,0-.26-0.7,0.9,0.9,0,0,0-.67-0.27,1.79,1.79,0,0,0-1.36.83,8.8,8.8,0,0,0-1.2,2A4.74,4.74,0,0,0,82.21,26a0.78,0.78,0,0,0,.79,1,1.52,1.52,0,0,0,1-.49,4,4,0,0,0,.88-1.24L86,22.83A1.62,1.62,0,0,0,86.15,22.29Z"/><path class="cls-1" d="M93.84,21.82a6.36,6.36,0,0,1-.4,2.16,6.83,6.83,0,0,1-1.1,2,2.91,2.91,0,0,1-2.18,1.31,1.51,1.51,0,0,1-1-.33,1.07,1.07,0,0,1-.4-0.86,5.65,5.65,0,0,1,.55-2l0.82-1.94a1.78,1.78,0,0,0,.17-0.52,0.28,0.28,0,0,0-.34-0.3,1.34,1.34,0,0,0-.76.42,2.88,2.88,0,0,0-.69.85,0.29,0.29,0,0,1-.21.21,0.1,0.1,0,0,1-.13-0.1,2.13,2.13,0,0,1,.78-1A2.15,2.15,0,0,1,90.41,21a1.06,1.06,0,0,1,.71.23,0.74,0.74,0,0,1,.27.59,2.71,2.71,0,0,1-.27,1L90.32,24.7a4.07,4.07,0,0,0-.4,1.55,0.6,0.6,0,0,0,.61.73q0.89,0,1.94-1.63a5.65,5.65,0,0,0,1.05-3q0-.47-0.2-0.47l-0.13,0-0.2,0a0.33,0.33,0,0,1-.38-0.35,0.51,0.51,0,0,1,.18-0.39A0.59,0.59,0,0,1,93.21,21,0.64,0.64,0,0,1,93.84,21.82Z"/><path class="cls-1" d="M99.78,22A1.46,1.46,0,0,1,99,23.25a3.94,3.94,0,0,1-2.08.5,9.89,9.89,0,0,1-1-.06,4.67,4.67,0,0,0-.52,2A1.05,1.05,0,0,0,96.47,27a2.32,2.32,0,0,0,1.68-.89,0.6,0.6,0,0,1,.24-0.2,0.06,0.06,0,0,1,.07.07,1.28,1.28,0,0,1-.66.8,2.69,2.69,0,0,1-1.58.55,2.17,2.17,0,0,1-1.51-.54,1.75,1.75,0,0,1-.59-1.35,4.13,4.13,0,0,1,1.72-3.06,4.41,4.41,0,0,1,2.7-1.3Q99.78,21,99.78,22Zm-1-.24a0.39,0.39,0,0,0-.44-0.44,1.45,1.45,0,0,0-.89.34A5.85,5.85,0,0,0,96,23.51h0.38A2.82,2.82,0,0,0,97.91,23,1.53,1.53,0,0,0,98.77,21.75Z"/><path class="cls-1" d="M104.39,17.22a1,1,0,0,1-.07.2l-0.14.34L101,25.49a4.1,4.1,0,0,0-.35,1.12q0,0.38.51,0.38a1.4,1.4,0,0,0,1-.59,0.76,0.76,0,0,1,.27-0.25,0.09,0.09,0,0,1,.1.1,1.17,1.17,0,0,1-.47.59,2,2,0,0,1-1.39.48q-1.16,0-1.16-.86a4,4,0,0,1,.35-1.15l3.17-7.74,0-.1q0-.13-0.27-0.13a0.84,0.84,0,0,1-.62-0.1s0-.07.13-0.07h0.78a7.82,7.82,0,0,0,.9,0l0.21,0Q104.39,17.1,104.39,17.22Z"/><path class="cls-1" d="M109,21.12a0.48,0.48,0,0,1-.07.17q-0.1.17-.33,0.69l-1.63,3.71a3.61,3.61,0,0,0-.32.93,0.34,0.34,0,0,0,.4.38,1.33,1.33,0,0,0,.62-0.19,1.49,1.49,0,0,0,.53-0.45,0.35,0.35,0,0,1,.2-0.17,0.07,0.07,0,0,1,.08.08,0.93,0.93,0,0,1-.4.5,2,2,0,0,1-1.34.5,1.26,1.26,0,0,1-.81-0.25,0.79,0.79,0,0,1-.32-0.65,3.29,3.29,0,0,1,.35-1.14L107.4,22a1.11,1.11,0,0,1,.17-0.37,0.17,0.17,0,0,0,0-.1,0.72,0.72,0,0,0-.62-0.17,0.12,0.12,0,0,1-.11-0.1A0.11,0.11,0,0,1,107,21.1l0.21,0a5,5,0,0,0,.64,0,2.43,2.43,0,0,0,.83-0.1,0.65,0.65,0,0,1,.2-0.06A0.09,0.09,0,0,1,109,21.12Zm1-2.64a0.51,0.51,0,0,1-.55.59,0.64,0.64,0,0,1-.47-0.18,0.59,0.59,0,0,1-.18-0.45,0.55,0.55,0,0,1,.65-0.58A0.51,0.51,0,0,1,109.94,18.47Z"/><path class="cls-1" d="M114.11,22.11a0.59,0.59,0,0,1-.16.41,0.48,0.48,0,0,1-.37.17,0.37,0.37,0,0,1-.42-0.41,0.28,0.28,0,0,1,.28-0.34l0.13,0a0.38,0.38,0,0,0,.15,0,0.08,0.08,0,0,0,.08-0.1,0.6,0.6,0,0,0-.32-0.46,1.17,1.17,0,0,0-.66-0.22,1.08,1.08,0,0,0-.76.29,0.92,0.92,0,0,0-.31.7,8.4,8.4,0,0,0,.66,2,2.26,2.26,0,0,1,.16.86,2.18,2.18,0,0,1-.65,1.61,2.21,2.21,0,0,1-1.63.65,2.16,2.16,0,0,1-1.42-.47,1.46,1.46,0,0,1-.57-1.17,0.92,0.92,0,0,1,.23-0.65,0.76,0.76,0,0,1,.59-0.25,0.64,0.64,0,0,1,.46.18,0.59,0.59,0,0,1,.19.44,0.37,0.37,0,0,1-.41.42q-0.44,0-.44-0.3a0.59,0.59,0,0,1,0-.2l0-.11a0.11,0.11,0,0,0-.11-0.14,0.29,0.29,0,0,0-.23.19,0.85,0.85,0,0,0-.11.42,1.25,1.25,0,0,0,.46,1,1.58,1.58,0,0,0,1.09.41,1.4,1.4,0,0,0,1-.35,1.15,1.15,0,0,0,.39-0.89,4.35,4.35,0,0,0-.3-1.24,4.26,4.26,0,0,1-.29-1.36,2.25,2.25,0,0,1,.56-1.55,1.76,1.76,0,0,1,1.36-.63,1.43,1.43,0,0,1,.93.32A1,1,0,0,1,114.11,22.11Z"/><path class="cls-1" d="M121,21.19q0,0.2-.59.21h-0.79l-1.91,4.28a3.19,3.19,0,0,0-.31.88q0,0.3.44,0.3a1.41,1.41,0,0,0,1.13-.67,0.32,0.32,0,0,1,.17-0.14,0.09,0.09,0,0,1,.11.1,1.17,1.17,0,0,1-.47.59,1.9,1.9,0,0,1-1.29.47A1.29,1.29,0,0,1,116.7,27a0.79,0.79,0,0,1-.32-0.65,2.84,2.84,0,0,1,.32-0.94l1.85-4H118c-0.16,0-.24,0-0.24-0.09a0.17,0.17,0,0,1,.2-0.17h0.74l0.24-.61a0.5,0.5,0,0,1,.2-0.31l0.22,0,0.23,0A1.26,1.26,0,0,0,120,20.1l0.1,0a0.06,0.06,0,0,1,.07.06l-0.16.33-0.31.67h0.88l0.17,0,0.11,0C121,21.08,121,21.11,121,21.19Z"/><path class="cls-1" d="M126.63,26.06a0.65,0.65,0,0,1-.27.33,3,3,0,0,1-1.82.85,0.91,0.91,0,0,1-.64-0.22,0.74,0.74,0,0,1-.24-0.57,3.22,3.22,0,0,1,.34-1.06l1.25-2.78a3.26,3.26,0,0,0,.31-0.86,0.4,0.4,0,0,0-.47-0.44,2.31,2.31,0,0,0-1.41.79,7,7,0,0,0-1,1.1,10.39,10.39,0,0,0-.78,1.53L121,26.79a1.42,1.42,0,0,1-.16.31,0.25,0.25,0,0,1-.17,0h-1s-0.06,0-.06,0a1.09,1.09,0,0,1,.1-0.28L123.65,18a2.93,2.93,0,0,0,.21-0.55,0.11,0.11,0,0,0-.06-0.13h-0.46q-0.34,0-.34-0.12s0-.06.1-0.06h1.2l0.59,0,0.23,0a0.1,0.1,0,0,1,.13.1,0.26,0.26,0,0,1-.06.17,3,3,0,0,1-.18.38l-2.29,5.07a8.29,8.29,0,0,1,1.48-1.39,2.24,2.24,0,0,1,1.24-.39,1.39,1.39,0,0,1,.85.25,0.76,0.76,0,0,1,.33.63,3.22,3.22,0,0,1-.33,1.18L125,26a2.86,2.86,0,0,0-.24.67,0.19,0.19,0,0,0,.21.21,2.36,2.36,0,0,0,1.29-.72,0.66,0.66,0,0,1,.28-0.19A0.07,0.07,0,0,1,126.63,26.06Z"/><path class="cls-1" d="M132.81,22a1.46,1.46,0,0,1-.82,1.26,3.94,3.94,0,0,1-2.08.5,9.9,9.9,0,0,1-1-.06,4.66,4.66,0,0,0-.52,2A1.05,1.05,0,0,0,129.5,27a2.32,2.32,0,0,0,1.68-.89,0.6,0.6,0,0,1,.24-0.2,0.06,0.06,0,0,1,.07.07,1.28,1.28,0,0,1-.66.8,2.69,2.69,0,0,1-1.58.55,2.17,2.17,0,0,1-1.51-.54,1.75,1.75,0,0,1-.59-1.35,4.13,4.13,0,0,1,1.72-3.06,4.41,4.41,0,0,1,2.7-1.3Q132.81,21,132.81,22Zm-1-.24a0.39,0.39,0,0,0-.44-0.44,1.45,1.45,0,0,0-.89.34A5.86,5.86,0,0,0,129,23.51h0.38a2.82,2.82,0,0,0,1.54-.48A1.53,1.53,0,0,0,131.81,21.75Z"/><path class="cls-1" d="M139.72,21.19q0,0.2-.59.21h-0.79l-1.91,4.28a3.18,3.18,0,0,0-.31.88q0,0.3.44,0.3a1.41,1.41,0,0,0,1.13-.67,0.31,0.31,0,0,1,.17-0.14,0.09,0.09,0,0,1,.11.1,1.17,1.17,0,0,1-.47.59,1.9,1.9,0,0,1-1.29.47,1.29,1.29,0,0,1-.83-0.25,0.79,0.79,0,0,1-.32-0.65,2.84,2.84,0,0,1,.33-0.94l1.85-4h-0.58c-0.16,0-.24,0-0.24-0.09a0.17,0.17,0,0,1,.2-0.17h0.74l0.24-.61a0.5,0.5,0,0,1,.2-0.31l0.22,0,0.23,0a1.26,1.26,0,0,0,.45-0.13l0.1,0a0.06,0.06,0,0,1,.07.06l-0.16.33-0.31.67h0.88l0.17,0,0.11,0C139.67,21.08,139.72,21.11,139.72,21.19Z"/><path class="cls-1" d="M144.27,21.68a0.71,0.71,0,0,1-.18.49,0.56,0.56,0,0,1-.42.2q-0.23,0-.23-0.16l0-.14a0.49,0.49,0,0,0,0-.16,0.3,0.3,0,0,0-.34-0.34,2,2,0,0,0-1.14.79,8.35,8.35,0,0,0-1.38,2.22l-1,2.23a0.47,0.47,0,0,1-.24.32,3.16,3.16,0,0,0-.44,0,1.37,1.37,0,0,0-.38,0h-0.08c-0.09,0-.13,0-0.13-0.06l0-.06,0.07-.14,2.39-5.44c0-.08-0.06-0.11-0.18-0.11h-0.38c-0.14,0-.21,0-0.21-0.1a1.3,1.3,0,0,1,.74-0.11,3.6,3.6,0,0,0,1-.13l0.13,0a0.07,0.07,0,0,1,.08.08,2.82,2.82,0,0,1-.18.52l-0.52,1.27q1.3-1.81,2.29-1.81A0.58,0.58,0,0,1,144.27,21.68Z"/><path class="cls-1" d="M150.39,21.12a1.42,1.42,0,0,1-.11.3l-1.87,4.22a2.53,2.53,0,0,0-.27.93,0.32,0.32,0,0,0,.37.37,1.48,1.48,0,0,0,1.1-.75,0.32,0.32,0,0,1,.17-0.16,0,0,0,0,1,.06.06,1,1,0,0,1-.31.49,2,2,0,0,1-1.48.66,1.13,1.13,0,0,1-.71-0.21,0.66,0.66,0,0,1-.28-0.55,1.52,1.52,0,0,1,.1-0.49,2.52,2.52,0,0,1-2.06,1.3,1.61,1.61,0,0,1-1.2-.47,1.64,1.64,0,0,1-.47-1.21,3.65,3.65,0,0,1,.54-1.76,6.73,6.73,0,0,1,1.43-1.75A3.54,3.54,0,0,1,147.62,21a1.06,1.06,0,0,1,1.19,1l0.35-.75a0.34,0.34,0,0,1,.2-0.23l0.17,0,0.2,0a1.38,1.38,0,0,0,.48-0.07l0.1,0A0.08,0.08,0,0,1,150.39,21.12Zm-1.78,1.17a1,1,0,0,0-.26-0.7,0.9,0.9,0,0,0-.67-0.27,1.79,1.79,0,0,0-1.36.83,8.78,8.78,0,0,0-1.2,2,4.74,4.74,0,0,0-.45,1.84,0.78,0.78,0,0,0,.79,1,1.52,1.52,0,0,0,1-.49,4,4,0,0,0,.88-1.24l1.1-2.36A1.61,1.61,0,0,0,148.61,22.29Z"/><path class="cls-1" d="M156.3,21.82a6.36,6.36,0,0,1-.4,2.16,6.83,6.83,0,0,1-1.1,2,2.91,2.91,0,0,1-2.18,1.31,1.51,1.51,0,0,1-1-.33,1.07,1.07,0,0,1-.4-0.86,5.65,5.65,0,0,1,.55-2l0.82-1.94a1.79,1.79,0,0,0,.17-0.52,0.28,0.28,0,0,0-.34-0.3,1.34,1.34,0,0,0-.76.42,2.87,2.87,0,0,0-.69.85,0.29,0.29,0,0,1-.21.21,0.1,0.1,0,0,1-.13-0.1,2.13,2.13,0,0,1,.78-1,2.15,2.15,0,0,1,1.44-.69,1.06,1.06,0,0,1,.71.23,0.74,0.74,0,0,1,.27.59,2.7,2.7,0,0,1-.27,1l-0.79,1.83a4.07,4.07,0,0,0-.4,1.55A0.6,0.6,0,0,0,153,27q0.89,0,1.94-1.63a5.65,5.65,0,0,0,1.05-3q0-.47-0.2-0.47l-0.13,0-0.2,0a0.33,0.33,0,0,1-.38-0.35,0.51,0.51,0,0,1,.18-0.39,0.59,0.59,0,0,1,.42-0.16A0.64,0.64,0,0,1,156.3,21.82Z"/><path class="cls-1" d="M162.24,22a1.46,1.46,0,0,1-.82,1.26,3.94,3.94,0,0,1-2.08.5,9.9,9.9,0,0,1-1-.06,4.66,4.66,0,0,0-.52,2A1.05,1.05,0,0,0,158.93,27a2.32,2.32,0,0,0,1.68-.89,0.6,0.6,0,0,1,.24-0.2,0.06,0.06,0,0,1,.07.07,1.28,1.28,0,0,1-.66.8,2.69,2.69,0,0,1-1.58.55,2.17,2.17,0,0,1-1.51-.54,1.75,1.75,0,0,1-.59-1.35,4.13,4.13,0,0,1,1.72-3.06A4.41,4.41,0,0,1,161,21Q162.24,21,162.24,22Zm-1-.24a0.39,0.39,0,0,0-.44-0.44,1.45,1.45,0,0,0-.89.34,5.86,5.86,0,0,0-1.46,1.85h0.38a2.82,2.82,0,0,0,1.54-.48A1.53,1.53,0,0,0,161.23,21.75Z"/><path class="cls-1" d="M166.85,17.22a1,1,0,0,1-.07.2l-0.14.34-3.17,7.73a4.11,4.11,0,0,0-.35,1.12q0,0.38.51,0.38a1.4,1.4,0,0,0,1-.59,0.76,0.76,0,0,1,.27-0.25,0.09,0.09,0,0,1,.1.1,1.17,1.17,0,0,1-.47.59,2,2,0,0,1-1.38.48q-1.16,0-1.16-.86a4,4,0,0,1,.35-1.15l3.17-7.74,0-.1c0-.09-0.09-0.13-0.27-0.13a0.84,0.84,0,0,1-.62-0.1s0-.07.13-0.07h0.78a7.82,7.82,0,0,0,.9,0l0.21,0C166.79,17.1,166.85,17.14,166.85,17.22Z"/><path class="cls-1" d="M171,22a1.46,1.46,0,0,1-.82,1.26,3.94,3.94,0,0,1-2.08.5,9.9,9.9,0,0,1-1-.06,4.66,4.66,0,0,0-.52,2A1.05,1.05,0,0,0,167.74,27a2.32,2.32,0,0,0,1.68-.89,0.6,0.6,0,0,1,.24-0.2,0.06,0.06,0,0,1,.07.07,1.28,1.28,0,0,1-.66.8,2.69,2.69,0,0,1-1.58.55,2.17,2.17,0,0,1-1.51-.54,1.75,1.75,0,0,1-.59-1.35,4.13,4.13,0,0,1,1.72-3.06,4.41,4.41,0,0,1,2.7-1.3Q171,21,171,22Zm-1-.24a0.39,0.39,0,0,0-.44-0.44,1.45,1.45,0,0,0-.89.34,5.86,5.86,0,0,0-1.46,1.85h0.38a2.82,2.82,0,0,0,1.54-.48A1.53,1.53,0,0,0,170,21.75Z"/><path class="cls-1" d="M176.27,21.68a0.71,0.71,0,0,1-.18.49,0.56,0.56,0,0,1-.42.2q-0.23,0-.23-0.16l0-.14a0.49,0.49,0,0,0,0-.16,0.3,0.3,0,0,0-.34-0.34,2,2,0,0,0-1.14.79,8.35,8.35,0,0,0-1.38,2.22l-1,2.23a0.47,0.47,0,0,1-.24.32,3.16,3.16,0,0,0-.44,0,1.37,1.37,0,0,0-.38,0h-0.08c-0.09,0-.13,0-0.13-0.06l0-.06,0.07-.14,2.39-5.44c0-.08-0.06-0.11-0.18-0.11h-0.38c-0.14,0-.21,0-0.21-0.1a1.3,1.3,0,0,1,.74-0.11,3.6,3.6,0,0,0,1-.13l0.13,0a0.07,0.07,0,0,1,.08.08,2.82,2.82,0,0,1-.18.52l-0.52,1.27q1.3-1.81,2.29-1.81A0.58,0.58,0,0,1,176.27,21.68Z"/><path class="cls-1" d="M176.9,26.42a0.75,0.75,0,0,1-.79.79,0.6,0.6,0,0,1-.69-0.66,0.8,0.8,0,0,1,.82-0.82A0.6,0.6,0,0,1,176.9,26.42Z"/><path class="cls-1" d="M13.17,34.36q0,0.11-.45.14a1.65,1.65,0,0,0-.73.16,2.57,2.57,0,0,0-.57.65L11,35.94,5.46,43.55a1.58,1.58,0,0,1-.57.6c-0.06,0-.08,0-0.08-0.11V43.62L4.93,39,1.46,43.59a1.63,1.63,0,0,1-.58.59c-0.06,0-.08,0-0.08-0.11V43.62l0.28-8.74a0.3,0.3,0,0,0-.27-0.31,2.35,2.35,0,0,0-.48,0Q0,34.52,0,34.43c0-.09.07-0.14,0.21-0.14H0.35l0.64,0q0.52,0,1,0H3.45a1.05,1.05,0,0,1,.25,0c0.08,0,.11,0,0.11.07a0.11,0.11,0,0,1-.11.12l-0.63.08q-0.68.07-.69,0.33l0,0.64L2.09,42.18l2.8-3.66,0-3.53a0.43,0.43,0,0,0-.13-0.37,1,1,0,0,0-.53-0.09H4.11C4,34.52,4,34.49,4,34.43s0.08-.14.23-0.14H8.42l0.93,0H9.51c0.14,0,.21,0,0.21.1s-0.11.12-.34,0.13a2.45,2.45,0,0,0-.95.19,2.34,2.34,0,0,0-.65.69L6.22,37.56,6.09,42.14l4.57-6.33a6.18,6.18,0,0,0,.71-1.07q0-.21-0.34-0.21H10.54q-0.25,0-.25-0.11c0-.09.09-0.13,0.27-0.12H12l1,0a0.11,0.11,0,0,1,.08,0Q13.17,34.29,13.17,34.36Zm-5.33.35q0-.2-0.7-0.2-0.93,0-.93.4v0.5l0,1.65,1.34-1.89,0.24-.33A0.24,0.24,0,0,0,7.85,34.72Z"/><path class="cls-1" d="M17.22,43a0.65,0.65,0,0,1-.27.32,3,3,0,0,1-1.82.85A0.91,0.91,0,0,1,14.49,44a0.74,0.74,0,0,1-.24-0.57,3.22,3.22,0,0,1,.34-1.06l1.25-2.78a3.26,3.26,0,0,0,.31-0.86,0.4,0.4,0,0,0-.47-0.44,2.31,2.31,0,0,0-1.41.79,7,7,0,0,0-1,1.1,10.39,10.39,0,0,0-.78,1.53L11.6,43.75a1.44,1.44,0,0,1-.16.31,0.25,0.25,0,0,1-.17,0h-1s-0.06,0-.06,0a1.08,1.08,0,0,1,.1-0.28l3.89-8.85a2.93,2.93,0,0,0,.21-0.55,0.11,0.11,0,0,0-.06-0.13H13.92q-0.34,0-.34-0.12s0-.06.1-0.06h1.2l0.59,0,0.23,0a0.1,0.1,0,0,1,.13.1,0.26,0.26,0,0,1-.06.17,2.93,2.93,0,0,1-.18.38L13.3,39.73a8.28,8.28,0,0,1,1.48-1.39A2.24,2.24,0,0,1,16,38a1.39,1.39,0,0,1,.86.25,0.76,0.76,0,0,1,.33.63A3.23,3.23,0,0,1,16.89,40L15.6,43a2.86,2.86,0,0,0-.24.67,0.19,0.19,0,0,0,.21.21,2.36,2.36,0,0,0,1.29-.72,0.67,0.67,0,0,1,.28-0.19A0.07,0.07,0,0,1,17.22,43Z"/><path class="cls-1" d="M24.61,38.08a1.42,1.42,0,0,1-.11.3l-1.87,4.22a2.54,2.54,0,0,0-.27.93,0.32,0.32,0,0,0,.37.37,1.48,1.48,0,0,0,1.1-.75A0.32,0.32,0,0,1,24,43a0,0,0,0,1,.06.06,1,1,0,0,1-.31.49,2,2,0,0,1-1.48.66A1.14,1.14,0,0,1,21.55,44a0.66,0.66,0,0,1-.28-0.55,1.53,1.53,0,0,1,.1-0.5,2.52,2.52,0,0,1-2.06,1.3,1.61,1.61,0,0,1-1.2-.47,1.65,1.65,0,0,1-.47-1.21,3.66,3.66,0,0,1,.54-1.76,6.74,6.74,0,0,1,1.43-1.75A3.54,3.54,0,0,1,21.84,38,1.06,1.06,0,0,1,23,39l0.35-.75a0.34,0.34,0,0,1,.2-0.23l0.17,0,0.2,0A1.38,1.38,0,0,0,24.43,38l0.1,0A0.08,0.08,0,0,1,24.61,38.08Zm-1.78,1.17a1,1,0,0,0-.26-0.7,0.9,0.9,0,0,0-.67-0.27,1.79,1.79,0,0,0-1.36.83,8.8,8.8,0,0,0-1.2,2,4.74,4.74,0,0,0-.45,1.84,0.78,0.78,0,0,0,.79,1,1.52,1.52,0,0,0,1-.49,4,4,0,0,0,.88-1.24l1.1-2.36A1.62,1.62,0,0,0,22.83,39.25Z"/><path class="cls-1" d="M29.19,38.15q0,0.2-.59.21H27.8L25.9,42.65a3.19,3.19,0,0,0-.31.88q0,0.3.44,0.3a1.41,1.41,0,0,0,1.13-.67A0.32,0.32,0,0,1,27.32,43a0.09,0.09,0,0,1,.11.1,1.17,1.17,0,0,1-.47.59,1.9,1.9,0,0,1-1.29.47,1.28,1.28,0,0,1-.83-0.25,0.79,0.79,0,0,1-.32-0.65,2.84,2.84,0,0,1,.32-0.94l1.85-4H26.14c-0.16,0-.24,0-0.24-0.09a0.17,0.17,0,0,1,.2-0.17h0.74l0.24-.61a0.5,0.5,0,0,1,.2-0.31l0.22,0,0.23,0a1.26,1.26,0,0,0,.45-0.13l0.1,0a0.06,0.06,0,0,1,.07.06l-0.16.33-0.31.67h0.88l0.17,0L29,38C29.14,38,29.19,38.08,29.19,38.15Z"/><path class="cls-1" d="M40,38.82a6.5,6.5,0,0,1-1.18,3.71,3.21,3.21,0,0,1-2.49,1.74A1.18,1.18,0,0,1,35.52,44a1.34,1.34,0,0,1-.44-0.78,3.72,3.72,0,0,1,0-.68q-0.83,1.75-2.11,1.75A1.32,1.32,0,0,1,32,43.93a1.12,1.12,0,0,1-.37-0.86,4.07,4.07,0,0,1,.4-1.6l0.85-2a2.17,2.17,0,0,0,.21-0.81,0.31,0.31,0,0,0-.32-0.38,1.26,1.26,0,0,0-.72.37,2.69,2.69,0,0,0-.66.8,0.21,0.21,0,0,1-.16.15c-0.06,0-.08,0-0.08-0.11a1.62,1.62,0,0,1,.55-0.82A2.14,2.14,0,0,1,33.2,38a0.83,0.83,0,0,1,1,.82,4.16,4.16,0,0,1-.45,1.57L32.95,42.2a3.05,3.05,0,0,0-.32,1.2,0.48,0.48,0,0,0,.48.59q1.17,0,2.4-3l0.72-1.73,0.27-.8a0.21,0.21,0,0,1,.2-0.18h0.17l0.34,0,0.4-.07,0.13,0c0.08,0,.11,0,0.11.08a0.16,0.16,0,0,1-.06.11q-0.07.14-.16,0.35L36.3,42A3.61,3.61,0,0,0,36,43.3a0.58,0.58,0,0,0,.61.69q1,0,2.22-2a5.58,5.58,0,0,0,.89-2.87q0-.31-0.18-0.31l-0.14,0H39.27a0.34,0.34,0,0,1-.4-0.35A0.49,0.49,0,0,1,39,38.14a0.57,0.57,0,0,1,.4-0.16Q40,38,40,38.82Z"/><path class="cls-1" d="M46,39a1.46,1.46,0,0,1-.82,1.26,3.94,3.94,0,0,1-2.08.5,9.89,9.89,0,0,1-1-.06,4.67,4.67,0,0,0-.52,2,1.05,1.05,0,0,0,1.12,1.25A2.32,2.32,0,0,0,44.38,43a0.59,0.59,0,0,1,.24-0.2,0.06,0.06,0,0,1,.07.07,1.28,1.28,0,0,1-.66.8,2.69,2.69,0,0,1-1.58.55,2.17,2.17,0,0,1-1.51-.54,1.75,1.75,0,0,1-.59-1.35,4.13,4.13,0,0,1,1.72-3.06,4.41,4.41,0,0,1,2.7-1.3Q46,38,46,39Zm-1-.24a0.39,0.39,0,0,0-.44-0.44,1.45,1.45,0,0,0-.89.34,5.85,5.85,0,0,0-1.46,1.85H42.6A2.82,2.82,0,0,0,44.14,40,1.53,1.53,0,0,0,45,38.72Z"/><path class="cls-1" d="M53.51,39.07a0.59,0.59,0,0,1-.16.41,0.48,0.48,0,0,1-.37.17,0.37,0.37,0,0,1-.42-0.41,0.28,0.28,0,0,1,.28-0.34l0.13,0a0.38,0.38,0,0,0,.15,0,0.08,0.08,0,0,0,.08-0.1,0.6,0.6,0,0,0-.32-0.46,1.17,1.17,0,0,0-.66-0.22,1.08,1.08,0,0,0-.76.29,0.92,0.92,0,0,0-.31.7,8.4,8.4,0,0,0,.66,2A2.26,2.26,0,0,1,52,42a2.18,2.18,0,0,1-.65,1.61,2.21,2.21,0,0,1-1.63.65,2.16,2.16,0,0,1-1.42-.47,1.46,1.46,0,0,1-.57-1.17A0.93,0.93,0,0,1,47.94,42a0.76,0.76,0,0,1,.59-0.25,0.64,0.64,0,0,1,.46.18,0.59,0.59,0,0,1,.19.44,0.37,0.37,0,0,1-.41.42q-0.44,0-.44-0.3a0.59,0.59,0,0,1,0-.2l0-.11A0.11,0.11,0,0,0,48.28,42a0.3,0.3,0,0,0-.23.19,0.85,0.85,0,0,0-.11.42,1.25,1.25,0,0,0,.46,1,1.58,1.58,0,0,0,1.09.41,1.4,1.4,0,0,0,1-.35,1.15,1.15,0,0,0,.39-0.89,4.35,4.35,0,0,0-.3-1.24,4.26,4.26,0,0,1-.29-1.36,2.25,2.25,0,0,1,.56-1.55A1.76,1.76,0,0,1,52.19,38a1.43,1.43,0,0,1,.93.32A1,1,0,0,1,53.51,39.07Z"/><path class="cls-1" d="M58.9,39a1.46,1.46,0,0,1-.82,1.26,3.94,3.94,0,0,1-2.08.5,9.89,9.89,0,0,1-1-.06,4.67,4.67,0,0,0-.52,2,1.05,1.05,0,0,0,1.12,1.25A2.32,2.32,0,0,0,57.27,43a0.59,0.59,0,0,1,.24-0.2,0.06,0.06,0,0,1,.07.07,1.28,1.28,0,0,1-.66.8,2.69,2.69,0,0,1-1.58.55,2.17,2.17,0,0,1-1.51-.54,1.75,1.75,0,0,1-.59-1.35A4.13,4.13,0,0,1,55,39.29a4.41,4.41,0,0,1,2.7-1.3Q58.9,38,58.9,39Zm-1-.24a0.39,0.39,0,0,0-.44-0.44,1.45,1.45,0,0,0-.89.34,5.85,5.85,0,0,0-1.46,1.85h0.38A2.82,2.82,0,0,0,57,40,1.53,1.53,0,0,0,57.9,38.72Z"/><path class="cls-1" d="M64.27,39a1.46,1.46,0,0,1-.82,1.26,3.94,3.94,0,0,1-2.08.5,9.89,9.89,0,0,1-1-.06,4.67,4.67,0,0,0-.52,2A1.05,1.05,0,0,0,61,43.92,2.32,2.32,0,0,0,62.65,43a0.59,0.59,0,0,1,.24-0.2,0.06,0.06,0,0,1,.07.07,1.28,1.28,0,0,1-.66.8,2.69,2.69,0,0,1-1.58.55,2.17,2.17,0,0,1-1.51-.54,1.75,1.75,0,0,1-.59-1.35,4.13,4.13,0,0,1,1.72-3.06A4.41,4.41,0,0,1,63,38Q64.27,38,64.27,39Zm-1-.24a0.39,0.39,0,0,0-.44-0.44,1.45,1.45,0,0,0-.89.34,5.85,5.85,0,0,0-1.46,1.85h0.38A2.82,2.82,0,0,0,62.4,40,1.53,1.53,0,0,0,63.27,38.72Z"/><path class="cls-1" d="M70,38.08a0.48,0.48,0,0,1-.07.17q-0.1.17-.33,0.69L68,42.65a3.61,3.61,0,0,0-.32.93,0.34,0.34,0,0,0,.4.38,1.33,1.33,0,0,0,.62-0.19,1.5,1.5,0,0,0,.53-0.45,0.35,0.35,0,0,1,.2-0.17,0.07,0.07,0,0,1,.08.08,0.93,0.93,0,0,1-.4.5,2,2,0,0,1-1.34.5A1.26,1.26,0,0,1,66.95,44a0.79,0.79,0,0,1-.32-0.65A3.29,3.29,0,0,1,67,42.2l1.47-3.27a1.11,1.11,0,0,1,.17-0.37,0.17,0.17,0,0,0,0-.1A0.72,0.72,0,0,0,68,38.29a0.12,0.12,0,0,1-.11-0.1A0.11,0.11,0,0,1,68,38.07l0.21,0a5,5,0,0,0,.64,0,2.43,2.43,0,0,0,.83-0.1,0.65,0.65,0,0,1,.2-0.06A0.09,0.09,0,0,1,70,38.08Zm1-2.64a0.51,0.51,0,0,1-.55.59A0.64,0.64,0,0,1,70,35.85a0.59,0.59,0,0,1-.18-0.45,0.55,0.55,0,0,1,.65-0.58A0.51,0.51,0,0,1,71,35.44Z"/><path class="cls-1" d="M75.17,39.07a0.59,0.59,0,0,1-.16.41,0.48,0.48,0,0,1-.37.17,0.37,0.37,0,0,1-.42-0.41,0.28,0.28,0,0,1,.28-0.34l0.13,0a0.38,0.38,0,0,0,.15,0,0.08,0.08,0,0,0,.08-0.1,0.6,0.6,0,0,0-.32-0.46,1.17,1.17,0,0,0-.66-0.22,1.08,1.08,0,0,0-.76.29,0.92,0.92,0,0,0-.31.7,8.4,8.4,0,0,0,.66,2,2.26,2.26,0,0,1,.16.86A2.18,2.18,0,0,1,73,43.62a2.21,2.21,0,0,1-1.63.65,2.16,2.16,0,0,1-1.42-.47,1.46,1.46,0,0,1-.57-1.17A0.93,0.93,0,0,1,69.59,42a0.76,0.76,0,0,1,.59-0.25,0.64,0.64,0,0,1,.46.18,0.59,0.59,0,0,1,.19.44,0.37,0.37,0,0,1-.41.42q-0.44,0-.44-0.3a0.59,0.59,0,0,1,0-.2l0-.11A0.11,0.11,0,0,0,69.94,42a0.3,0.3,0,0,0-.23.19,0.85,0.85,0,0,0-.11.42,1.25,1.25,0,0,0,.46,1,1.58,1.58,0,0,0,1.09.41,1.4,1.4,0,0,0,1-.35,1.15,1.15,0,0,0,.39-0.89,4.35,4.35,0,0,0-.3-1.24,4.26,4.26,0,0,1-.29-1.36,2.25,2.25,0,0,1,.56-1.55A1.76,1.76,0,0,1,73.84,38a1.43,1.43,0,0,1,.93.32A1,1,0,0,1,75.17,39.07Z"/><path class="cls-1" d="M81.26,39.09a3.58,3.58,0,0,1-.37,1.18l-1.14,2.6a2,2,0,0,0-.2.61,0.28,0.28,0,0,0,.33.3,2.25,2.25,0,0,0,1.18-.65,0.25,0.25,0,0,1,.11,0,0.07,0.07,0,0,1,.09.07,0.93,0.93,0,0,1-.47.5,2.39,2.39,0,0,1-1.37.44,1.28,1.28,0,0,1-.73-0.19,0.57,0.57,0,0,1-.29-0.49,2.61,2.61,0,0,1,.27-0.85L79.8,40a4,4,0,0,0,.41-1.25,0.43,0.43,0,0,0-.49-0.48,2.37,2.37,0,0,0-1.53.93,6.87,6.87,0,0,0-1.22,2l-1.16,2.69a0.24,0.24,0,0,1-.18.21h-1c-0.07,0-.1,0-0.1-0.07a0.17,0.17,0,0,1,0-.08l0.1-.21,2.16-5.18,0.07-.13a0.36,0.36,0,0,0-.35-0.11q-0.42,0-.42-0.15t0.16-.1l0.31,0,0.32,0A2.82,2.82,0,0,0,78,38l0.13,0a0.07,0.07,0,0,1,.08.08,0.16,0.16,0,0,1,0,.07l-0.52,1.33L78,39.08A2.9,2.9,0,0,1,80,38a1.32,1.32,0,0,1,.92.32A1.05,1.05,0,0,1,81.26,39.09Z"/><path class="cls-1" d="M86.24,35.08a2.21,2.21,0,0,1-.9,1.63,1.59,1.59,0,0,1-.82.48,0.05,0.05,0,0,1-.06-0.06,0.45,0.45,0,0,1,.24-0.24A2.62,2.62,0,0,0,85.56,36a1.48,1.48,0,0,0,.23-0.72q0-.33-0.18-0.33a0.49,0.49,0,0,0-.23.25,0.41,0.41,0,0,1-.37.17,0.45,0.45,0,0,1-.35-0.17,0.6,0.6,0,0,1-.15-0.41,0.68,0.68,0,0,1,.25-0.54,0.89,0.89,0,0,1,.6-0.21,0.8,0.8,0,0,1,.62.29A1.06,1.06,0,0,1,86.24,35.08Z"/><path class="cls-1" d="M89.3,38.15q0,0.2-.59.21H87.92L86,42.65a3.19,3.19,0,0,0-.31.88q0,0.3.44,0.3a1.41,1.41,0,0,0,1.13-.67A0.32,0.32,0,0,1,87.44,43a0.09,0.09,0,0,1,.11.1,1.17,1.17,0,0,1-.47.59,1.9,1.9,0,0,1-1.29.47A1.28,1.28,0,0,1,85,43.92a0.79,0.79,0,0,1-.32-0.65A2.84,2.84,0,0,1,85,42.32l1.85-4H86.25c-0.16,0-.24,0-0.24-0.09a0.17,0.17,0,0,1,.2-0.17h0.74l0.24-.61a0.5,0.5,0,0,1,.2-0.31l0.22,0,0.23,0a1.26,1.26,0,0,0,.45-0.13l0.1,0a0.06,0.06,0,0,1,.07.06l-0.16.33L88,38.09h0.88l0.17,0,0.11,0C89.25,38,89.3,38.08,89.3,38.15Z"/><path class="cls-1" d="M100.1,38.82a6.5,6.5,0,0,1-1.18,3.71,3.21,3.21,0,0,1-2.49,1.74A1.18,1.18,0,0,1,95.64,44a1.34,1.34,0,0,1-.44-0.78,3.72,3.72,0,0,1,0-.68Q94.32,44.27,93,44.27a1.32,1.32,0,0,1-.93-0.34,1.12,1.12,0,0,1-.37-0.86,4.07,4.07,0,0,1,.4-1.6l0.85-2a2.17,2.17,0,0,0,.21-0.81,0.31,0.31,0,0,0-.32-0.38,1.26,1.26,0,0,0-.72.37,2.69,2.69,0,0,0-.66.8,0.21,0.21,0,0,1-.16.15c-0.06,0-.08,0-0.08-0.11a1.62,1.62,0,0,1,.55-0.82A2.14,2.14,0,0,1,93.32,38a0.83,0.83,0,0,1,1,.82,4.16,4.16,0,0,1-.45,1.57L93.06,42.2a3.05,3.05,0,0,0-.32,1.2,0.48,0.48,0,0,0,.48.59q1.17,0,2.4-3l0.72-1.73,0.27-.8a0.21,0.21,0,0,1,.2-0.18H97l0.34,0,0.4-.07,0.13,0c0.08,0,.11,0,0.11.08a0.16,0.16,0,0,1-.06.11q-0.07.14-.16,0.35L96.41,42a3.61,3.61,0,0,0-.31,1.27,0.58,0.58,0,0,0,.61.69q1,0,2.22-2a5.58,5.58,0,0,0,.89-2.87q0-.31-0.18-0.31l-0.14,0H99.39A0.34,0.34,0,0,1,99,38.5a0.49,0.49,0,0,1,.17-0.37,0.57,0.57,0,0,1,.4-0.16Q100.1,38,100.1,38.82Z"/><path class="cls-1" d="M107,43a0.65,0.65,0,0,1-.27.32,3,3,0,0,1-1.82.85A0.91,0.91,0,0,1,104.3,44a0.74,0.74,0,0,1-.24-0.57,3.22,3.22,0,0,1,.34-1.06l1.25-2.78A3.26,3.26,0,0,0,106,38.7a0.4,0.4,0,0,0-.47-0.44,2.31,2.31,0,0,0-1.41.79,7,7,0,0,0-1,1.1,10.39,10.39,0,0,0-.78,1.53l-0.92,2.06a1.44,1.44,0,0,1-.16.31,0.25,0.25,0,0,1-.17,0h-1s-0.06,0-.06,0a1.08,1.08,0,0,1,.1-0.28L104,34.93a2.93,2.93,0,0,0,.21-0.55,0.11,0.11,0,0,0-.06-0.13h-0.46q-0.34,0-.34-0.12s0-.06.1-0.06h1.2l0.59,0,0.23,0a0.1,0.1,0,0,1,.13.1,0.26,0.26,0,0,1-.06.17,2.93,2.93,0,0,1-.18.38l-2.29,5.07a8.28,8.28,0,0,1,1.48-1.39,2.24,2.24,0,0,1,1.24-.39,1.39,1.39,0,0,1,.86.25,0.76,0.76,0,0,1,.33.63A3.23,3.23,0,0,1,106.7,40l-1.29,3a2.86,2.86,0,0,0-.24.67,0.19,0.19,0,0,0,.21.21,2.36,2.36,0,0,0,1.29-.72,0.67,0.67,0,0,1,.28-0.19A0.07,0.07,0,0,1,107,43Z"/><path class="cls-1" d="M114.42,38.08a1.42,1.42,0,0,1-.11.3l-1.87,4.22a2.54,2.54,0,0,0-.27.93,0.32,0.32,0,0,0,.37.37,1.48,1.48,0,0,0,1.1-.75,0.32,0.32,0,0,1,.17-0.16,0,0,0,0,1,.06.06,1,1,0,0,1-.31.49,2,2,0,0,1-1.48.66,1.14,1.14,0,0,1-.71-0.21,0.66,0.66,0,0,1-.28-0.55,1.53,1.53,0,0,1,.1-0.5,2.52,2.52,0,0,1-2.06,1.3,1.61,1.61,0,0,1-1.2-.47,1.65,1.65,0,0,1-.47-1.21A3.66,3.66,0,0,1,108,40.8a6.74,6.74,0,0,1,1.43-1.75A3.54,3.54,0,0,1,111.65,38a1.06,1.06,0,0,1,1.19,1l0.35-.75a0.34,0.34,0,0,1,.2-0.23l0.17,0,0.2,0a1.38,1.38,0,0,0,.48-0.07l0.1,0A0.08,0.08,0,0,1,114.42,38.08Zm-1.78,1.17a1,1,0,0,0-.26-0.7,0.9,0.9,0,0,0-.67-0.27,1.79,1.79,0,0,0-1.36.83,8.8,8.8,0,0,0-1.2,2,4.74,4.74,0,0,0-.45,1.84,0.78,0.78,0,0,0,.79,1,1.52,1.52,0,0,0,1-.49,4,4,0,0,0,.88-1.24l1.1-2.36A1.62,1.62,0,0,0,112.64,39.25Z"/><path class="cls-1" d="M119,38.15q0,0.2-.59.21h-0.79l-1.91,4.28a3.19,3.19,0,0,0-.31.88q0,0.3.44,0.3a1.41,1.41,0,0,0,1.13-.67,0.32,0.32,0,0,1,.17-0.14,0.09,0.09,0,0,1,.11.1,1.17,1.17,0,0,1-.47.59,1.9,1.9,0,0,1-1.29.47,1.28,1.28,0,0,1-.83-0.25,0.79,0.79,0,0,1-.32-0.65,2.84,2.84,0,0,1,.32-0.94l1.85-4h-0.58c-0.16,0-.24,0-0.24-0.09a0.17,0.17,0,0,1,.2-0.17h0.74l0.24-.61a0.5,0.5,0,0,1,.2-0.31l0.22,0,0.23,0a1.26,1.26,0,0,0,.45-0.13l0.1,0a0.06,0.06,0,0,1,.07.06l-0.16.33-0.31.67h0.88l0.17,0,0.11,0C118.95,38,119,38.08,119,38.15Z"/><path class="cls-1" d="M129.8,38.82a6.51,6.51,0,0,1-1.18,3.71,3.21,3.21,0,0,1-2.49,1.74,1.18,1.18,0,0,1-.79-0.29,1.34,1.34,0,0,1-.44-0.78,3.6,3.6,0,0,1,0-.68q-0.83,1.75-2.11,1.75a1.32,1.32,0,0,1-.93-0.34,1.12,1.12,0,0,1-.37-0.86,4.07,4.07,0,0,1,.4-1.6l0.85-2a2.17,2.17,0,0,0,.21-0.81,0.31,0.31,0,0,0-.32-0.38,1.26,1.26,0,0,0-.72.37,2.69,2.69,0,0,0-.66.8,0.21,0.21,0,0,1-.16.15c-0.06,0-.08,0-0.08-0.11a1.62,1.62,0,0,1,.55-0.82A2.14,2.14,0,0,1,123,38a0.83,0.83,0,0,1,1,.82,4.16,4.16,0,0,1-.45,1.57l-0.83,1.83a3.05,3.05,0,0,0-.32,1.2,0.48,0.48,0,0,0,.48.59q1.17,0,2.4-3L126,39.29l0.27-.8a0.21,0.21,0,0,1,.2-0.18h0.17l0.34,0,0.4-.07,0.13,0c0.08,0,.11,0,0.11.08a0.17,0.17,0,0,1-.06.11c0,0.09-.1.21-0.16,0.35L126.11,42a3.6,3.6,0,0,0-.31,1.27,0.58,0.58,0,0,0,.61.69q1,0,2.22-2a5.57,5.57,0,0,0,.89-2.87q0-.31-0.18-0.31l-0.14,0h-0.11a0.34,0.34,0,0,1-.4-0.35,0.48,0.48,0,0,1,.17-0.37,0.57,0.57,0,0,1,.4-0.16Q129.8,38,129.8,38.82Z"/><path class="cls-1" d="M135.82,39a1.46,1.46,0,0,1-.82,1.26,3.94,3.94,0,0,1-2.08.5,9.9,9.9,0,0,1-1-.06,4.66,4.66,0,0,0-.52,2,1.05,1.05,0,0,0,1.12,1.25,2.32,2.32,0,0,0,1.68-.89,0.59,0.59,0,0,1,.24-0.2,0.06,0.06,0,0,1,.07.07,1.28,1.28,0,0,1-.66.8,2.69,2.69,0,0,1-1.58.55,2.17,2.17,0,0,1-1.51-.54,1.75,1.75,0,0,1-.59-1.35,4.13,4.13,0,0,1,1.72-3.06,4.41,4.41,0,0,1,2.7-1.3Q135.82,38,135.82,39Zm-1-.24a0.39,0.39,0,0,0-.44-0.44,1.45,1.45,0,0,0-.89.34A5.86,5.86,0,0,0,132,40.47h0.38A2.82,2.82,0,0,0,134,40,1.53,1.53,0,0,0,134.82,38.72Z"/><path class="cls-1" d="M143.33,39.07a0.59,0.59,0,0,1-.16.41,0.48,0.48,0,0,1-.37.17,0.37,0.37,0,0,1-.42-0.41,0.28,0.28,0,0,1,.28-0.34l0.13,0a0.38,0.38,0,0,0,.15,0,0.08,0.08,0,0,0,.08-0.1,0.6,0.6,0,0,0-.33-0.46,1.17,1.17,0,0,0-.66-0.22,1.08,1.08,0,0,0-.76.29,0.92,0.92,0,0,0-.31.7,8.4,8.4,0,0,0,.66,2,2.26,2.26,0,0,1,.16.86,2.18,2.18,0,0,1-.65,1.61,2.21,2.21,0,0,1-1.63.65,2.16,2.16,0,0,1-1.42-.47,1.46,1.46,0,0,1-.57-1.17,0.93,0.93,0,0,1,.23-0.65,0.76,0.76,0,0,1,.59-0.25,0.64,0.64,0,0,1,.46.18,0.59,0.59,0,0,1,.19.44,0.37,0.37,0,0,1-.41.42q-0.44,0-.44-0.3a0.58,0.58,0,0,1,0-.2l0-.11A0.11,0.11,0,0,0,138.1,42a0.29,0.29,0,0,0-.23.19,0.85,0.85,0,0,0-.11.42,1.25,1.25,0,0,0,.46,1,1.58,1.58,0,0,0,1.09.41,1.4,1.4,0,0,0,1-.35,1.15,1.15,0,0,0,.39-0.89,4.35,4.35,0,0,0-.3-1.24,4.26,4.26,0,0,1-.29-1.36,2.25,2.25,0,0,1,.56-1.55A1.76,1.76,0,0,1,142,38a1.43,1.43,0,0,1,.93.32A1,1,0,0,1,143.33,39.07Z"/><path class="cls-1" d="M148.71,39a1.46,1.46,0,0,1-.82,1.26,3.94,3.94,0,0,1-2.08.5,9.9,9.9,0,0,1-1-.06,4.66,4.66,0,0,0-.52,2,1.05,1.05,0,0,0,1.12,1.25,2.32,2.32,0,0,0,1.68-.89,0.59,0.59,0,0,1,.24-0.2,0.06,0.06,0,0,1,.07.07,1.28,1.28,0,0,1-.66.8,2.69,2.69,0,0,1-1.58.55,2.17,2.17,0,0,1-1.51-.54,1.75,1.75,0,0,1-.59-1.35,4.13,4.13,0,0,1,1.72-3.06,4.41,4.41,0,0,1,2.7-1.3Q148.71,38,148.71,39Zm-1-.24a0.39,0.39,0,0,0-.44-0.44,1.45,1.45,0,0,0-.89.34,5.86,5.86,0,0,0-1.46,1.85h0.38a2.82,2.82,0,0,0,1.54-.48A1.53,1.53,0,0,0,147.71,38.72Z"/><path class="cls-1" d="M154.08,39a1.46,1.46,0,0,1-.82,1.26,3.94,3.94,0,0,1-2.08.5,9.9,9.9,0,0,1-1-.06,4.66,4.66,0,0,0-.52,2,1.05,1.05,0,0,0,1.12,1.25,2.32,2.32,0,0,0,1.68-.89,0.59,0.59,0,0,1,.24-0.2,0.06,0.06,0,0,1,.07.07,1.28,1.28,0,0,1-.66.8,2.69,2.69,0,0,1-1.58.55,2.17,2.17,0,0,1-1.51-.54,1.75,1.75,0,0,1-.59-1.35,4.13,4.13,0,0,1,1.72-3.06,4.41,4.41,0,0,1,2.7-1.3Q154.08,38,154.08,39Zm-1-.24a0.39,0.39,0,0,0-.44-0.44,1.45,1.45,0,0,0-.89.34,5.86,5.86,0,0,0-1.46,1.85h0.38a2.82,2.82,0,0,0,1.54-.48A1.53,1.53,0,0,0,153.08,38.72Z"/><path class="cls-1" d="M162.75,39.77a4.24,4.24,0,0,1-1.48,3,4.41,4.41,0,0,1-3.09,1.45,2,2,0,0,1-1.27-.4,1.19,1.19,0,0,1-.52-1,4.31,4.31,0,0,1,.42-1.3l3-6.8a0.89,0.89,0,0,1,.11-0.26l0.07-.12a0.85,0.85,0,0,0-.78-0.13c-0.08,0-.11,0-0.11-0.08s0.12-.1.35-0.1h1.31l0.3,0h0.1q0.11,0,.11.08a0.24,0.24,0,0,1,0,.11,3.43,3.43,0,0,0-.3.59l-1.34,3.29q-0.14.34-.38,0.79l0.14-.13,0.37-.34A1.85,1.85,0,0,1,161,38a1.64,1.64,0,0,1,1.24.51A1.78,1.78,0,0,1,162.75,39.77Zm-1.14-.57q0-1-.74-1-1.41,0-2.57,2.8l-0.34.82a5.47,5.47,0,0,0-.5,1.6q0,0.56.75,0.56,1.38,0,2.5-2.12A6.29,6.29,0,0,0,161.6,39.21Z"/><path class="cls-1" d="M169.86,38.17l0,0.07-0.1.23-1.58,3.72a5.57,5.57,0,0,0-.48,1.4A0.33,0.33,0,0,0,168,44a1.69,1.69,0,0,0,1.16-.78,0.49,0.49,0,0,1,.21-0.2,0.08,0.08,0,0,1,.08.09,1.44,1.44,0,0,1-.83.86,1.94,1.94,0,0,1-1,.3,1.19,1.19,0,0,1-.72-0.23,0.65,0.65,0,0,1-.31-0.53,1.78,1.78,0,0,1,.13-0.53l0.17-.48a8.82,8.82,0,0,1-1.44,1.44,2.08,2.08,0,0,1-1.19.33,1.69,1.69,0,0,1-.9-0.22,0.66,0.66,0,0,1-.35-0.57,2.91,2.91,0,0,1,.31-1.08l1.46-3.28,0.24-.5a0.25,0.25,0,0,0,0-.1c0-.08-0.11-0.11-0.34-0.11s-0.45-.05-0.45-0.16a0.09,0.09,0,0,1,.1-0.1l0.33,0,0.33,0a3.45,3.45,0,0,0,1.09-.13l0.11,0a0.07,0.07,0,0,1,.07.09,3.11,3.11,0,0,1-.28.72q-0.28.6-.52,1.24-0.06.16-.44,1l-0.57,1.31a3.46,3.46,0,0,0-.35,1.15,0.42,0.42,0,0,0,.52.41,2.38,2.38,0,0,0,1.43-.9,8.15,8.15,0,0,0,1.64-2.57l0.9-2.15a0.22,0.22,0,0,1,.16-0.17h0.41a1.77,1.77,0,0,0,.5,0l0.1,0A0.06,0.06,0,0,1,169.86,38.17Z"/><path class="cls-1" d="M174.49,38.15q0,0.2-.59.21h-0.79l-1.91,4.28a3.18,3.18,0,0,0-.31.88q0,0.3.44,0.3a1.41,1.41,0,0,0,1.13-.67,0.31,0.31,0,0,1,.17-0.14,0.09,0.09,0,0,1,.11.1,1.17,1.17,0,0,1-.47.59,1.9,1.9,0,0,1-1.29.47,1.28,1.28,0,0,1-.83-0.25,0.79,0.79,0,0,1-.32-0.65,2.84,2.84,0,0,1,.33-0.94l1.85-4h-0.58c-0.16,0-.24,0-0.24-0.09a0.17,0.17,0,0,1,.2-0.17h0.74l0.24-.61a0.5,0.5,0,0,1,.2-0.31l0.22,0,0.23,0a1.26,1.26,0,0,0,.45-0.13l0.1,0a0.06,0.06,0,0,1,.07.06l-0.16.33-0.31.67h0.88l0.17,0,0.11,0C174.44,38,174.49,38.08,174.49,38.15Z"/><path class="cls-1" d="M185.29,38.82a6.5,6.5,0,0,1-1.18,3.71,3.21,3.21,0,0,1-2.49,1.74,1.18,1.18,0,0,1-.79-0.29,1.34,1.34,0,0,1-.44-0.78,3.66,3.66,0,0,1,0-.68q-0.83,1.75-2.11,1.75a1.32,1.32,0,0,1-.93-0.34,1.12,1.12,0,0,1-.37-0.86,4.07,4.07,0,0,1,.4-1.6l0.85-2a2.17,2.17,0,0,0,.21-0.81,0.31,0.31,0,0,0-.33-0.38,1.26,1.26,0,0,0-.72.37,2.69,2.69,0,0,0-.66.8,0.21,0.21,0,0,1-.16.15c-0.06,0-.09,0-0.09-0.11a1.62,1.62,0,0,1,.55-0.82,2.14,2.14,0,0,1,1.51-.75,0.83,0.83,0,0,1,1,.82,4.16,4.16,0,0,1-.45,1.57l-0.83,1.83a3.05,3.05,0,0,0-.33,1.2,0.48,0.48,0,0,0,.48.59q1.17,0,2.4-3l0.72-1.73,0.27-.8a0.21,0.21,0,0,1,.2-0.18h0.17l0.34,0,0.4-.07,0.13,0c0.08,0,.11,0,0.11.08a0.16,0.16,0,0,1-.06.11q-0.07.14-.16,0.35L181.6,42a3.61,3.61,0,0,0-.31,1.27,0.58,0.58,0,0,0,.61.69q1,0,2.22-2a5.58,5.58,0,0,0,.89-2.87q0-.31-0.18-0.31l-0.14,0h-0.11a0.34,0.34,0,0,1-.4-0.35,0.49,0.49,0,0,1,.17-0.37,0.57,0.57,0,0,1,.41-0.16Q185.29,38,185.29,38.82Z"/><path class="cls-1" d="M192.22,43a0.65,0.65,0,0,1-.27.32,3,3,0,0,1-1.82.85,0.91,0.91,0,0,1-.64-0.22,0.74,0.74,0,0,1-.24-0.57,3.22,3.22,0,0,1,.34-1.06l1.25-2.78a3.26,3.26,0,0,0,.31-0.86,0.4,0.4,0,0,0-.47-0.44,2.31,2.31,0,0,0-1.41.79,7,7,0,0,0-1,1.1,10.45,10.45,0,0,0-.78,1.53l-0.92,2.06a1.45,1.45,0,0,1-.16.31,0.25,0.25,0,0,1-.17,0h-1s-0.06,0-.06,0a1.07,1.07,0,0,1,.1-0.28l3.89-8.85a2.93,2.93,0,0,0,.21-0.55,0.11,0.11,0,0,0-.06-0.13h-0.46q-0.34,0-.34-0.12s0-.06.1-0.06h1.2l0.59,0,0.23,0a0.1,0.1,0,0,1,.13.1,0.26,0.26,0,0,1-.06.17,3,3,0,0,1-.18.38l-2.29,5.07a8.29,8.29,0,0,1,1.48-1.39A2.24,2.24,0,0,1,191,38a1.39,1.39,0,0,1,.85.25,0.76,0.76,0,0,1,.33.63,3.22,3.22,0,0,1-.33,1.18l-1.29,3a2.86,2.86,0,0,0-.24.67,0.19,0.19,0,0,0,.21.21,2.36,2.36,0,0,0,1.29-.72,0.67,0.67,0,0,1,.28-0.19A0.07,0.07,0,0,1,192.22,43Z"/><path class="cls-1" d="M199.61,38.08a1.42,1.42,0,0,1-.11.3l-1.87,4.22a2.53,2.53,0,0,0-.27.93,0.32,0.32,0,0,0,.37.37,1.48,1.48,0,0,0,1.1-.75A0.32,0.32,0,0,1,199,43a0.05,0.05,0,0,1,.06.06,1,1,0,0,1-.31.49,2,2,0,0,1-1.48.66,1.14,1.14,0,0,1-.71-0.21,0.66,0.66,0,0,1-.28-0.55,1.52,1.52,0,0,1,.1-0.5,2.52,2.52,0,0,1-2.06,1.3,1.61,1.61,0,0,1-1.2-.47,1.64,1.64,0,0,1-.47-1.21,3.65,3.65,0,0,1,.54-1.76,6.73,6.73,0,0,1,1.43-1.75A3.54,3.54,0,0,1,196.84,38,1.06,1.06,0,0,1,198,39l0.35-.75a0.34,0.34,0,0,1,.2-0.23l0.17,0,0.2,0a1.38,1.38,0,0,0,.48-0.07l0.1,0A0.08,0.08,0,0,1,199.61,38.08Zm-1.78,1.17a1,1,0,0,0-.26-0.7,0.9,0.9,0,0,0-.67-0.27,1.79,1.79,0,0,0-1.36.83,8.78,8.78,0,0,0-1.2,2,4.74,4.74,0,0,0-.45,1.84,0.78,0.78,0,0,0,.79,1,1.51,1.51,0,0,0,1-.49,4,4,0,0,0,.88-1.24l1.1-2.36A1.61,1.61,0,0,0,197.83,39.25Z"/><path class="cls-1" d="M204.19,38.15q0,0.2-.59.21H202.8l-1.91,4.28a3.18,3.18,0,0,0-.31.88q0,0.3.44,0.3a1.41,1.41,0,0,0,1.13-.67,0.31,0.31,0,0,1,.17-0.14,0.09,0.09,0,0,1,.11.1,1.17,1.17,0,0,1-.47.59,1.9,1.9,0,0,1-1.29.47,1.28,1.28,0,0,1-.83-0.25,0.79,0.79,0,0,1-.32-0.65,2.84,2.84,0,0,1,.33-0.94l1.85-4h-0.58c-0.16,0-.24,0-0.24-0.09a0.17,0.17,0,0,1,.2-0.17h0.74l0.24-.61a0.5,0.5,0,0,1,.2-0.31l0.22,0,0.23,0a1.26,1.26,0,0,0,.45-0.13l0.1,0a0.06,0.06,0,0,1,.07.06l-0.16.33-0.31.67h0.88l0.17,0L204,38C204.14,38,204.19,38.08,204.19,38.15Z"/><path class="cls-1" d="M215,38.82a6.5,6.5,0,0,1-1.18,3.71,3.21,3.21,0,0,1-2.49,1.74,1.18,1.18,0,0,1-.79-0.29,1.34,1.34,0,0,1-.44-0.78,3.66,3.66,0,0,1,0-.68q-0.83,1.75-2.11,1.75a1.32,1.32,0,0,1-.93-0.34,1.12,1.12,0,0,1-.37-0.86,4.07,4.07,0,0,1,.4-1.6l0.85-2a2.17,2.17,0,0,0,.21-0.81,0.31,0.31,0,0,0-.33-0.38,1.26,1.26,0,0,0-.72.37,2.69,2.69,0,0,0-.66.8,0.21,0.21,0,0,1-.16.15c-0.06,0-.09,0-0.09-0.11a1.62,1.62,0,0,1,.55-0.82A2.14,2.14,0,0,1,208.2,38a0.83,0.83,0,0,1,1,.82,4.16,4.16,0,0,1-.45,1.57l-0.83,1.83a3.05,3.05,0,0,0-.33,1.2,0.48,0.48,0,0,0,.48.59q1.17,0,2.4-3l0.72-1.73,0.27-.8a0.21,0.21,0,0,1,.2-0.18h0.17l0.34,0,0.4-.07,0.13,0c0.08,0,.11,0,0.11.08a0.16,0.16,0,0,1-.06.11q-0.07.14-.16,0.35L211.3,42A3.61,3.61,0,0,0,211,43.3a0.58,0.58,0,0,0,.61.69q1,0,2.22-2a5.58,5.58,0,0,0,.89-2.87q0-.31-0.18-0.31l-0.14,0h-0.11a0.34,0.34,0,0,1-.4-0.35,0.49,0.49,0,0,1,.17-0.37,0.57,0.57,0,0,1,.41-0.16Q215,38,215,38.82Z"/><path class="cls-1" d="M221,39a1.46,1.46,0,0,1-.82,1.26,3.94,3.94,0,0,1-2.08.5,9.9,9.9,0,0,1-1-.06,4.66,4.66,0,0,0-.52,2,1.05,1.05,0,0,0,1.12,1.25,2.32,2.32,0,0,0,1.68-.89,0.59,0.59,0,0,1,.24-0.2,0.06,0.06,0,0,1,.07.07,1.28,1.28,0,0,1-.66.8,2.69,2.69,0,0,1-1.58.55,2.17,2.17,0,0,1-1.51-.54,1.75,1.75,0,0,1-.59-1.35,4.13,4.13,0,0,1,1.72-3.06,4.41,4.41,0,0,1,2.7-1.3Q221,38,221,39Zm-1-.24a0.39,0.39,0,0,0-.44-0.44,1.45,1.45,0,0,0-.89.34,5.86,5.86,0,0,0-1.46,1.85h0.38a2.82,2.82,0,0,0,1.54-.48A1.53,1.53,0,0,0,220,38.72Z"/><path class="cls-1" d="M230.23,38.08a1.42,1.42,0,0,1-.11.3l-1.87,4.22a2.53,2.53,0,0,0-.27.93,0.32,0.32,0,0,0,.37.37,1.48,1.48,0,0,0,1.1-.75,0.32,0.32,0,0,1,.17-0.16,0.05,0.05,0,0,1,.06.06,1,1,0,0,1-.31.49,2,2,0,0,1-1.48.66,1.14,1.14,0,0,1-.71-0.21,0.66,0.66,0,0,1-.28-0.55,1.52,1.52,0,0,1,.1-0.5,2.52,2.52,0,0,1-2.06,1.3,1.61,1.61,0,0,1-1.2-.47,1.64,1.64,0,0,1-.47-1.21,3.65,3.65,0,0,1,.54-1.76,6.73,6.73,0,0,1,1.43-1.75A3.54,3.54,0,0,1,227.46,38a1.06,1.06,0,0,1,1.19,1l0.35-.75a0.34,0.34,0,0,1,.2-0.23l0.17,0,0.2,0A1.38,1.38,0,0,0,230,38l0.1,0A0.08,0.08,0,0,1,230.23,38.08Zm-1.78,1.17a1,1,0,0,0-.26-0.7,0.9,0.9,0,0,0-.67-0.27,1.79,1.79,0,0,0-1.36.83,8.78,8.78,0,0,0-1.2,2,4.74,4.74,0,0,0-.45,1.84,0.78,0.78,0,0,0,.79,1,1.51,1.51,0,0,0,1-.49,4,4,0,0,0,.88-1.24l1.1-2.36A1.61,1.61,0,0,0,228.44,39.25Z"/><path class="cls-1" d="M235.75,38.65a0.71,0.71,0,0,1-.18.49,0.56,0.56,0,0,1-.42.2q-0.23,0-.23-0.16l0-.14a0.49,0.49,0,0,0,0-.16,0.3,0.3,0,0,0-.34-0.34,2,2,0,0,0-1.14.79,8.35,8.35,0,0,0-1.38,2.22l-1,2.23a0.48,0.48,0,0,1-.24.33,3.13,3.13,0,0,0-.44,0,1.36,1.36,0,0,0-.38,0h-0.08c-0.09,0-.13,0-0.13-0.06l0-.06,0.07-.14,2.39-5.44c0-.08-0.06-0.11-0.18-0.11h-0.38c-0.14,0-.21,0-0.21-0.1a1.3,1.3,0,0,1,.74-0.11,3.6,3.6,0,0,0,1-.13l0.13,0a0.07,0.07,0,0,1,.08.08,2.82,2.82,0,0,1-.18.52l-0.52,1.27q1.3-1.81,2.29-1.81A0.58,0.58,0,0,1,235.75,38.65Z"/><path class="cls-1" d="M240.66,39a1.46,1.46,0,0,1-.82,1.26,3.94,3.94,0,0,1-2.08.5,9.9,9.9,0,0,1-1-.06,4.66,4.66,0,0,0-.52,2,1.05,1.05,0,0,0,1.12,1.25A2.32,2.32,0,0,0,239,43a0.59,0.59,0,0,1,.24-0.2,0.06,0.06,0,0,1,.07.07,1.28,1.28,0,0,1-.66.8,2.69,2.69,0,0,1-1.58.55,2.17,2.17,0,0,1-1.51-.54,1.75,1.75,0,0,1-.59-1.35,4.13,4.13,0,0,1,1.72-3.06,4.41,4.41,0,0,1,2.7-1.3Q240.66,38,240.66,39Zm-1-.24a0.39,0.39,0,0,0-.44-0.44,1.45,1.45,0,0,0-.89.34,5.86,5.86,0,0,0-1.46,1.85h0.38a2.82,2.82,0,0,0,1.54-.48A1.53,1.53,0,0,0,239.65,38.72Z"/><path class="cls-1" d="M241.75,43.38a0.75,0.75,0,0,1-.79.79,0.6,0.6,0,0,1-.69-0.66,0.8,0.8,0,0,1,.82-0.82A0.6,0.6,0,0,1,241.75,43.38Z"/><path class="cls-1" d="M247.91,35.08a2.21,2.21,0,0,1-.9,1.63,1.59,1.59,0,0,1-.82.48,0,0,0,0,1-.06-0.06,0.45,0.45,0,0,1,.24-0.24,2.62,2.62,0,0,0,.86-0.88,1.48,1.48,0,0,0,.23-0.72c0-.22-0.06-0.33-0.18-0.33a0.49,0.49,0,0,0-.23.25,0.41,0.41,0,0,1-.37.17,0.45,0.45,0,0,1-.35-0.17,0.6,0.6,0,0,1-.15-0.41,0.68,0.68,0,0,1,.25-0.54,0.89,0.89,0,0,1,.6-0.21,0.8,0.8,0,0,1,.62.29A1.06,1.06,0,0,1,247.91,35.08Zm2.09,0a2.23,2.23,0,0,1-.92,1.63,1.6,1.6,0,0,1-.81.48,0,0,0,0,1-.06-0.06,0.45,0.45,0,0,1,.24-0.24,2.62,2.62,0,0,0,.86-0.88,1.54,1.54,0,0,0,.23-0.72c0-.22-0.06-0.33-0.18-0.33a0.49,0.49,0,0,0-.23.25,0.41,0.41,0,0,1-.37.17,0.45,0.45,0,0,1-.35-0.17,0.6,0.6,0,0,1-.15-0.41,0.68,0.68,0,0,1,.25-0.54,0.89,0.89,0,0,1,.6-0.21,0.8,0.8,0,0,1,.62.29A1.06,1.06,0,0,1,250,35.08Z"/><path class="cls-1" d="M86,71.9q0,0.2-.14.2t-0.2-.36a2.51,2.51,0,0,0-.69-1.5,1.84,1.84,0,0,0-1-.37q-0.25,0-1.13,0-0.65,0-1.55,0V74a5.73,5.73,0,0,0,2.23-.23,1.74,1.74,0,0,0,.51-1.39q0-.33.17-0.33c0.09,0,.14.07,0.14,0.21a1.31,1.31,0,0,1,0,.21q0,1,0,1.81,0,1.07,0,1.7a0.94,0.94,0,0,1,0,.17,0.14,0.14,0,0,1-.14.17A0.13,0.13,0,0,1,84,76.27a6.29,6.29,0,0,1-.1-0.65,1.49,1.49,0,0,0-.44-1.07,2.73,2.73,0,0,0-1.32-.21q-0.52,0-.91,0v4.21a0.49,0.49,0,0,0,.32.52,2.34,2.34,0,0,0,.68,0q0.22,0,.22.11c0,0.09-.09.13-0.28,0.13H78.91q-0.27,0-.27-0.11a0.52,0.52,0,0,1,.49-0.14A1,1,0,0,0,79.71,79a1.42,1.42,0,0,0,.08-0.66V70.19a0.34,0.34,0,0,0-.15-0.32,2.55,2.55,0,0,0-.74-0.08c-0.15,0-.23,0-0.23-0.14s0.08-.13.25-0.13H82.8a27.89,27.89,0,0,0,2.93-.08l0.08,1.06q0,0.59.11,1.06A2.49,2.49,0,0,1,86,71.9Z"/><path class="cls-1" d="M91.66,77.82a1.25,1.25,0,0,1-.22.5,3.13,3.13,0,0,1-.45.59,2.17,2.17,0,0,1-1.63.62,2.79,2.79,0,0,1-2.13-.92,3.21,3.21,0,0,1-.86-2.28A3.5,3.5,0,0,1,87.2,74a2.57,2.57,0,0,1,2-.95,2.48,2.48,0,0,1,1.68.59,2,2,0,0,1,.72,1.51,7.16,7.16,0,0,1-1.2.06h-1l-1.7,0a5.91,5.91,0,0,0-.07.89,3.75,3.75,0,0,0,.54,2.19,1.77,1.77,0,0,0,1.53.77,1.47,1.47,0,0,0,.9-0.25,3.11,3.11,0,0,0,.74-1,0.17,0.17,0,0,1,.16-0.11A0.09,0.09,0,0,1,91.66,77.82Zm-1.23-2.88q-0.06-1.7-1.22-1.7t-1.43,1.7h2.64Z"/><path class="cls-1" d="M96.79,74a0.76,0.76,0,0,1-.2.54,0.67,0.67,0,0,1-.51.21,0.62,0.62,0,0,1-.42-0.15,0.48,0.48,0,0,1-.17-0.37,0.49,0.49,0,0,1,.13-0.34,0.42,0.42,0,0,0,.13-0.2q0-.21-0.31-0.21a0.8,0.8,0,0,0-.68.49,4.82,4.82,0,0,0-.33,2.14v2.78a0.2,0.2,0,0,0,.12.21,3.62,3.62,0,0,0,.73.06c0.1,0,.16.06,0.16,0.11s-0.06.1-.18,0.1H92.51c-0.15,0-.23,0-0.23-0.08s0.06-.08.18-0.08h0.2a0.82,0.82,0,0,0,.57-0.11,2.37,2.37,0,0,0,0-.53V74.67a1.06,1.06,0,0,0-.23-0.9,1.82,1.82,0,0,0-.74-0.13c-0.11,0-.17,0-0.17-0.1s0-.1.14-0.1h0.1l0.42,0,0.18,0a2.78,2.78,0,0,0,1.16-.3l0.18-.09,0.11,0a4.14,4.14,0,0,1,.06.68V74a1.4,1.4,0,0,1,1.27-1,1.06,1.06,0,0,1,.75.28A0.9,0.9,0,0,1,96.79,74Z"/><path class="cls-1" d="M103.66,79.28q0,0.11-.21.11h-2.6q-0.18,0-.18-0.1a0.08,0.08,0,0,1,.08-0.08l0.54,0a0.46,0.46,0,0,0,.31-0.08,1.28,1.28,0,0,0,0-.46V75.93a8,8,0,0,0-.11-1.83,0.93,0.93,0,0,0-1-.63,1.45,1.45,0,0,0-1.19.62,0.81,0.81,0,0,0-.14.51V79c0,0.11.1,0.17,0.3,0.18H100c0.1,0,.14,0,0.14.1s-0.06.1-.17,0.1H97.37c-0.14,0-.21,0-0.21-0.09s0.08-.09.25-0.11h0.35a0.25,0.25,0,0,0,.25-0.1l0-.21V75.81q0-1.61,0-1.78t-0.35-.17H97.28q-0.28,0-.28-0.11t0.3-.14a3.8,3.8,0,0,0,.92-0.16,1.76,1.76,0,0,0,.69-0.33A0.36,0.36,0,0,1,99.1,73q0.1,0,.1.27V74a2.29,2.29,0,0,1,1.89-.95,1.58,1.58,0,0,1,1.47.75,3.47,3.47,0,0,1,.25,1.61v3.22a1.34,1.34,0,0,0,0,.49,0.64,0.64,0,0,0,.41.08h0.25C103.62,79.19,103.66,79.22,103.66,79.28Z"/><path class="cls-1" d="M109.78,78.73a0.74,0.74,0,0,1-.5.5,2.08,2.08,0,0,1-1,.26,0.91,0.91,0,0,1-1-1,1.75,1.75,0,0,1-1.66,1,1.42,1.42,0,0,1-1-.36,1.2,1.2,0,0,1-.39-0.93,2.06,2.06,0,0,1,1.39-1.84A7.66,7.66,0,0,1,107.3,76V75.6a6.59,6.59,0,0,0-.13-1.64,1,1,0,0,0-1-.72,1.27,1.27,0,0,0-.83.27,0.84,0.84,0,0,0-.33.68q0,0.11.17,0.11a0.4,0.4,0,0,1,.31.17,0.59,0.59,0,0,1,.14.38,0.55,0.55,0,0,1-.62.62,0.7,0.7,0,0,1-.53-0.22,0.77,0.77,0,0,1-.21-0.56,1.5,1.5,0,0,1,.52-1.14,2.32,2.32,0,0,1,1.61-.52q1.55,0,1.91.85a4.19,4.19,0,0,1,.13,1.29v2.64q0,0.65,0,.76a0.46,0.46,0,0,0,.41.51,0.84,0.84,0,0,0,.65-0.28,0.39,0.39,0,0,1,.21-0.16A0.07,0.07,0,0,1,109.78,78.73Zm-2.49-1.5v-1a3.58,3.58,0,0,0-1.5.63,1.3,1.3,0,0,0-.45,1,1.08,1.08,0,0,0,.26.74,0.83,0.83,0,0,0,.65.29,1.08,1.08,0,0,0,1-.68A3.14,3.14,0,0,0,107.3,77.23Z"/><path class="cls-1" d="M116.19,79.28q0,0.11-.21.11h-2.6q-0.18,0-.18-0.1a0.08,0.08,0,0,1,.08-0.08l0.54,0a0.46,0.46,0,0,0,.31-0.08,1.28,1.28,0,0,0,0-.46V75.93a8,8,0,0,0-.11-1.83,0.93,0.93,0,0,0-1-.63,1.45,1.45,0,0,0-1.19.62,0.81,0.81,0,0,0-.14.51V79c0,0.11.1,0.17,0.3,0.18h0.43c0.1,0,.14,0,0.14.1s-0.06.1-.17,0.1H109.9c-0.14,0-.21,0-0.21-0.09s0.08-.09.25-0.11h0.35a0.25,0.25,0,0,0,.25-0.1l0-.21V75.81q0-1.61,0-1.78t-0.35-.17H109.8q-0.28,0-.28-0.11t0.3-.14a3.8,3.8,0,0,0,.92-0.16,1.76,1.76,0,0,0,.69-0.33,0.36,0.36,0,0,1,.2-0.11q0.1,0,.1.27V74a2.29,2.29,0,0,1,1.89-.95,1.58,1.58,0,0,1,1.47.75,3.47,3.47,0,0,1,.25,1.61v3.22a1.34,1.34,0,0,0,0,.49,0.64,0.64,0,0,0,.41.08H116C116.14,79.19,116.19,79.22,116.19,79.28Z"/><path class="cls-1" d="M123,79.08q0,0.1-.2.1h-0.42a2.34,2.34,0,0,0-1.17.27,0.89,0.89,0,0,1-.24.11q-0.13,0-.13-0.17V79a2,2,0,0,1-1.44.61,2.45,2.45,0,0,1-2-.92,3.5,3.5,0,0,1-.77-2.34,3.54,3.54,0,0,1,.77-2.37,2.51,2.51,0,0,1,2-.91,1.64,1.64,0,0,1,1.44.69v-2.2a5.15,5.15,0,0,0-.1-1.33,0.25,0.25,0,0,0-.25-0.2l-0.49,0c-0.12,0-.18,0-0.18-0.13a0.13,0.13,0,0,1,.15-0.13h0.51a3.23,3.23,0,0,0,1.29-.4l0.1,0q0.14,0,.14.34v5.57q0,3.35.06,3.59a1,1,0,0,0,.66.1Q123,79,123,79.08Zm-2.09-3.55a3.24,3.24,0,0,0-.3-1.74,1.19,1.19,0,0,0-1-.48,1.36,1.36,0,0,0-1.22.79,4.27,4.27,0,0,0-.45,2.12,5.41,5.41,0,0,0,.4,2.18,1.56,1.56,0,0,0,.5.63,1.13,1.13,0,0,0,.69.25,1.3,1.3,0,0,0,.79-0.26,1.19,1.19,0,0,0,.46-0.63A19.13,19.13,0,0,0,120.91,75.53Z"/><path class="cls-1" d="M129.33,76.31a3.31,3.31,0,0,1-.83,2.3,2.68,2.68,0,0,1-2.08.93,2.82,2.82,0,0,1-2.15-.93,3.24,3.24,0,0,1-.86-2.3,3.37,3.37,0,0,1,.84-2.35,2.71,2.71,0,0,1,2.1-.93,2.76,2.76,0,0,1,2.13.94A3.34,3.34,0,0,1,129.33,76.31Zm-1.29,0a5,5,0,0,0-.48-2.42,1.25,1.25,0,0,0-1.19-.64,1.37,1.37,0,0,0-1.24.81,4.74,4.74,0,0,0-.44,2.25,4.38,4.38,0,0,0,.47,2.23,1.47,1.47,0,0,0,1.32.8,1.05,1.05,0,0,0,1-.5A4.71,4.71,0,0,0,128,76.29Z"/><path class="cls-1" d="M139.43,71.9A2.41,2.41,0,0,1,138.25,74a3.35,3.35,0,0,1-1.87.48,6.86,6.86,0,0,1-1.09-.1v4a1.7,1.7,0,0,0,0,.41,0.37,0.37,0,0,0,.31.24,5.79,5.79,0,0,0,.79.06q0.16,0,.16.1t-0.2.14h-3.25q-0.42,0-.42-0.14t0.3-.1a1.24,1.24,0,0,0,.76-0.13,0.31,0.31,0,0,0,.13-0.28V70.37a0.52,0.52,0,0,0-.24-0.54,1.49,1.49,0,0,0-.49-0.06h-0.24q-0.21,0-.21-0.11c0-.08.13-0.13,0.4-0.13h3.11a3.94,3.94,0,0,1,2.36.57A2.11,2.11,0,0,1,139.43,71.9Zm-1.48,0q0-2.13-1.78-2.13a1.08,1.08,0,0,0-.78.2,0.72,0.72,0,0,0-.08.44V74.2h0.25a2.9,2.9,0,0,0,1.58-.41A2.07,2.07,0,0,0,137.94,71.91Z"/><path class="cls-1" d="M145.22,77.82a1.25,1.25,0,0,1-.22.5,3.13,3.13,0,0,1-.44.59,2.17,2.17,0,0,1-1.63.62,2.79,2.79,0,0,1-2.13-.92,3.21,3.21,0,0,1-.86-2.28,3.5,3.5,0,0,1,.81-2.36,2.56,2.56,0,0,1,2-.95,2.48,2.48,0,0,1,1.68.59,2,2,0,0,1,.72,1.51,7.17,7.17,0,0,1-1.2.06h-1l-1.7,0a5.87,5.87,0,0,0-.07.89,3.75,3.75,0,0,0,.54,2.19,1.77,1.77,0,0,0,1.53.77,1.48,1.48,0,0,0,.9-0.25,3.12,3.12,0,0,0,.74-1,0.17,0.17,0,0,1,.16-0.11A0.09,0.09,0,0,1,145.22,77.82ZM144,74.94q-0.06-1.7-1.22-1.7t-1.43,1.7H144Z"/><path class="cls-1" d="M150.34,77.56a1.87,1.87,0,0,1-.6,1.4,2,2,0,0,1-1.42.57,2.75,2.75,0,0,1-1.16-.34,0.7,0.7,0,0,0-.32-0.1,0.33,0.33,0,0,0-.29.27,0.19,0.19,0,0,1-.15.17,0.09,0.09,0,0,1-.1-0.11V77.52c0-.1,0-0.16.1-0.16a0.14,0.14,0,0,1,.13.16,2.11,2.11,0,0,0,.37,1,1.81,1.81,0,0,0,1.51.74,1.14,1.14,0,0,0,.82-0.3,1,1,0,0,0,.31-0.79,1.14,1.14,0,0,0-.35-0.88,1.52,1.52,0,0,0-.36-0.26l-1-.38a2,2,0,0,1-1.57-1.78,1.82,1.82,0,0,1,.53-1.33,1.78,1.78,0,0,1,1.32-.54,3.22,3.22,0,0,1,.84.17,0.89,0.89,0,0,0,.25,0,0.34,0.34,0,0,0,.37-0.28,0.15,0.15,0,0,1,.13-0.14,0.09,0.09,0,0,1,.1.11v0.68a7.89,7.89,0,0,0,.07,1.09v0a0.1,0.1,0,0,1-.11.11,0.64,0.64,0,0,1-.21-0.43,1.65,1.65,0,0,0-.54-0.83,1.39,1.39,0,0,0-.9-0.31,1.1,1.1,0,0,0-.79.3,1,1,0,0,0-.31.75,1.2,1.2,0,0,0,.95,1.08,6.58,6.58,0,0,1,1.87,1A1.62,1.62,0,0,1,150.34,77.56Z"/><path class="cls-1" d="M155.45,77.56a1.87,1.87,0,0,1-.6,1.4,2,2,0,0,1-1.42.57,2.75,2.75,0,0,1-1.16-.34,0.7,0.7,0,0,0-.32-0.1,0.33,0.33,0,0,0-.29.27,0.19,0.19,0,0,1-.15.17,0.09,0.09,0,0,1-.1-0.11V77.52c0-.1,0-0.16.1-0.16a0.14,0.14,0,0,1,.13.16,2.11,2.11,0,0,0,.37,1,1.81,1.81,0,0,0,1.51.74,1.14,1.14,0,0,0,.82-0.3,1,1,0,0,0,.31-0.79,1.14,1.14,0,0,0-.35-0.88,1.52,1.52,0,0,0-.36-0.26l-1-.38a2,2,0,0,1-1.57-1.78,1.82,1.82,0,0,1,.53-1.33,1.78,1.78,0,0,1,1.32-.54,3.22,3.22,0,0,1,.84.17,0.89,0.89,0,0,0,.25,0,0.34,0.34,0,0,0,.37-0.28,0.15,0.15,0,0,1,.13-0.14,0.09,0.09,0,0,1,.1.11v0.68A7.89,7.89,0,0,0,155,74.7v0a0.1,0.1,0,0,1-.11.11,0.64,0.64,0,0,1-.21-0.43,1.65,1.65,0,0,0-.54-0.83,1.39,1.39,0,0,0-.9-0.31,1.1,1.1,0,0,0-.79.3,1,1,0,0,0-.31.75,1.2,1.2,0,0,0,.95,1.08,6.58,6.58,0,0,1,1.87,1A1.62,1.62,0,0,1,155.45,77.56Z"/><path class="cls-1" d="M162.18,76.31a3.3,3.3,0,0,1-.83,2.3,2.68,2.68,0,0,1-2.08.93,2.82,2.82,0,0,1-2.15-.93,3.24,3.24,0,0,1-.86-2.3A3.37,3.37,0,0,1,157.1,74a2.71,2.71,0,0,1,2.1-.93,2.76,2.76,0,0,1,2.13.94A3.35,3.35,0,0,1,162.18,76.31Zm-1.29,0a5,5,0,0,0-.48-2.42,1.25,1.25,0,0,0-1.19-.64,1.37,1.37,0,0,0-1.24.81,4.74,4.74,0,0,0-.44,2.25,4.38,4.38,0,0,0,.47,2.23,1.47,1.47,0,0,0,1.32.8,1.05,1.05,0,0,0,1-.5A4.71,4.71,0,0,0,160.9,76.29Z"/><path class="cls-1" d="M168.67,78.73a0.74,0.74,0,0,1-.5.5,2.08,2.08,0,0,1-1,.26,0.91,0.91,0,0,1-1-1,1.75,1.75,0,0,1-1.66,1,1.42,1.42,0,0,1-1-.36,1.2,1.2,0,0,1-.39-0.93,2.06,2.06,0,0,1,1.39-1.84,7.66,7.66,0,0,1,1.65-.45V75.6a6.61,6.61,0,0,0-.13-1.64,1,1,0,0,0-1-.72,1.27,1.27,0,0,0-.83.27,0.84,0.84,0,0,0-.33.68c0,0.08.06,0.11,0.17,0.11a0.4,0.4,0,0,1,.31.17,0.59,0.59,0,0,1,.14.38,0.55,0.55,0,0,1-.62.62,0.7,0.7,0,0,1-.53-0.22,0.77,0.77,0,0,1-.21-0.56,1.5,1.5,0,0,1,.52-1.14,2.32,2.32,0,0,1,1.61-.52q1.55,0,1.91.85a4.19,4.19,0,0,1,.13,1.29v2.64q0,0.65,0,.76a0.46,0.46,0,0,0,.41.51,0.84,0.84,0,0,0,.65-0.28,0.39,0.39,0,0,1,.21-0.16A0.07,0.07,0,0,1,168.67,78.73Zm-2.49-1.5v-1a3.57,3.57,0,0,0-1.5.63,1.3,1.3,0,0,0-.45,1,1.07,1.07,0,0,0,.26.74,0.83,0.83,0,0,0,.65.29,1.08,1.08,0,0,0,1-.68A3.14,3.14,0,0,0,166.18,77.23Z"/><line class="cls-2" x1="15.07" y1="76.62" x2="67.91" y2="76.62"/><line class="cls-2" x1="178.84" y1="76.62" x2="231.68" y2="76.62"/></svg>